<?xml version="1.0" encoding="utf-8"?>
<!-- Generator: Adobe Illustrator 25.4.1, SVG Export Plug-In . SVG Version: 6.00 Build 0)  -->
<svg version="1.1" id="Layer_1" xmlns="http://www.w3.org/2000/svg" xmlns:xlink="http://www.w3.org/1999/xlink" x="0px" y="0px"
	 viewBox="0 0 157.9 211" style="enable-background:new 0 0 157.9 211;" xml:space="preserve">
<style type="text/css">
	.st0{fill:none;stroke:#9D9D9C;stroke-width:0.5;stroke-miterlimit:10;}
	.st1{fill:none;stroke:#9D9D9C;stroke-width:0.75;stroke-miterlimit:10;}
	.st2{fill:#2E4193;}
	.st3{fill:#706F6F;}
	.st4{stroke:#000000;stroke-width:3;stroke-miterlimit:10;}
	.st5{fill:none;stroke:#000000;stroke-width:0.25;stroke-miterlimit:10;}
	.st6{fill:#00A675;stroke:#000000;stroke-miterlimit:10;}
	.st7{fill:#00A675;}
	.st8{fill:#F4E721;stroke:#9D9D9C;stroke-width:0.5;stroke-miterlimit:10;}
</style>
<path class="st0" d="M-4183.3,221.2v-11.8h-47.3v-23.6h-11.8v35.5h35.5v23.6h-23.6v11.8h11.8v11.8h11.8v-11.8h23.7v-11.8h11.8v-23.6
	H-4183.3z M-4301.6,103v236.5h236.5V103H-4301.6z M-4266.1,150.3h23.6v70.9h35.5v23.6h-59.1V150.3z M-4230.6,162.1h11.8v35.5h11.8
	v11.8h-23.6V162.1z"/>
<line class="st0" x1="-4301.6" y1="339.5" x2="-4065.1" y2="339.5"/>
<line class="st0" x1="-4301.6" y1="327.6" x2="-4065.1" y2="327.6"/>
<line class="st0" x1="-4301.6" y1="315.8" x2="-4065.1" y2="315.8"/>
<line class="st0" x1="-4301.6" y1="304" x2="-4065.1" y2="304"/>
<line class="st0" x1="-4301.6" y1="292.2" x2="-4065.1" y2="292.2"/>
<line class="st0" x1="-4301.6" y1="280.4" x2="-4065.1" y2="280.4"/>
<line class="st0" x1="-4301.6" y1="268.5" x2="-4065.1" y2="268.5"/>
<line class="st0" x1="-4301.6" y1="256.7" x2="-4065.1" y2="256.7"/>
<polyline class="st0" points="-4065.1,244.9 -4076.9,244.9 -4088.7,244.9 -4100.5,244.9 -4112.4,244.9 -4124.2,244.9 -4136,244.9 
	-4147.8,244.9 -4159.7,244.9 -4171.5,244.9 -4183.3,244.9 -4195.1,244.9 -4207,244.9 "/>
<polyline class="st0" points="-4266.1,244.9 -4277.9,244.9 -4289.7,244.9 -4301.6,244.9 "/>
<polyline class="st0" points="-4065.1,233.1 -4076.9,233.1 -4088.7,233.1 -4100.5,233.1 -4112.4,233.1 -4124.2,233.1 -4136,233.1 
	-4147.8,233.1 -4159.7,233.1 -4171.5,233.1 -4183.3,233.1 -4195.1,233.1 -4207,233.1 "/>
<polyline class="st0" points="-4266.1,233.1 -4277.9,233.1 -4289.7,233.1 -4301.6,233.1 "/>
<polyline class="st0" points="-4065.1,221.2 -4076.9,221.2 -4088.7,221.2 -4100.5,221.2 -4112.4,221.2 -4124.2,221.2 -4136,221.2 
	-4147.8,221.2 -4159.7,221.2 -4171.5,221.2 -4183.3,221.2 -4195.1,221.2 -4207,221.2 "/>
<polyline class="st0" points="-4266.1,221.2 -4277.9,221.2 -4289.7,221.2 -4301.6,221.2 "/>
<line class="st0" x1="-4230.6" y1="209.4" x2="-4242.4" y2="209.4"/>
<polyline class="st0" points="-4207,209.4 -4195.1,209.4 -4183.3,209.4 -4171.5,209.4 -4159.7,209.4 -4147.8,209.4 -4136,209.4 
	-4124.2,209.4 -4112.4,209.4 -4100.5,209.4 -4088.7,209.4 -4076.9,209.4 -4065.1,209.4 "/>
<polyline class="st0" points="-4266.1,209.4 -4277.9,209.4 -4289.7,209.4 -4301.6,209.4 "/>
<line class="st0" x1="-4230.6" y1="197.6" x2="-4242.4" y2="197.6"/>
<polyline class="st0" points="-4207,197.6 -4195.1,197.6 -4183.3,197.6 -4171.5,197.6 -4159.7,197.6 -4147.8,197.6 -4136,197.6 
	-4124.2,197.6 -4112.4,197.6 -4100.5,197.6 -4088.7,197.6 -4076.9,197.6 -4065.1,197.6 "/>
<polyline class="st0" points="-4266.1,197.6 -4277.9,197.6 -4289.7,197.6 -4301.6,197.6 "/>
<line class="st0" x1="-4230.6" y1="185.8" x2="-4242.4" y2="185.8"/>
<polyline class="st0" points="-4218.8,185.8 -4207,185.8 -4195.1,185.8 -4183.3,185.8 -4171.5,185.8 -4159.7,185.8 -4147.8,185.8 
	-4136,185.8 -4124.2,185.8 -4112.4,185.8 -4100.5,185.8 -4088.7,185.8 -4076.9,185.8 -4065.1,185.8 "/>
<polyline class="st0" points="-4266.1,185.8 -4277.9,185.8 -4289.7,185.8 -4301.6,185.8 "/>
<line class="st0" x1="-4230.6" y1="173.9" x2="-4242.4" y2="173.9"/>
<polyline class="st0" points="-4218.8,173.9 -4207,173.9 -4195.1,173.9 -4183.3,173.9 -4171.5,173.9 -4159.7,173.9 -4147.8,173.9 
	-4136,173.9 -4124.2,173.9 -4112.4,173.9 -4100.5,173.9 -4088.7,173.9 -4076.9,173.9 -4065.1,173.9 "/>
<polyline class="st0" points="-4266.1,173.9 -4277.9,173.9 -4289.7,173.9 -4301.6,173.9 "/>
<line class="st0" x1="-4230.6" y1="162.1" x2="-4242.4" y2="162.1"/>
<polyline class="st0" points="-4218.8,162.1 -4207,162.1 -4195.1,162.1 -4183.3,162.1 -4171.5,162.1 -4159.7,162.1 -4147.8,162.1 
	-4136,162.1 -4124.2,162.1 -4112.4,162.1 -4100.5,162.1 -4088.7,162.1 -4076.9,162.1 -4065.1,162.1 "/>
<polyline class="st0" points="-4266.1,162.1 -4277.9,162.1 -4289.7,162.1 -4301.6,162.1 "/>
<polyline class="st0" points="-4242.4,150.3 -4230.6,150.3 -4218.8,150.3 -4207,150.3 -4195.1,150.3 -4183.3,150.3 -4171.5,150.3 
	-4159.7,150.3 -4147.8,150.3 -4136,150.3 -4124.2,150.3 -4112.4,150.3 -4100.5,150.3 -4088.7,150.3 -4076.9,150.3 -4065.1,150.3 "/>
<polyline class="st0" points="-4266.1,150.3 -4277.9,150.3 -4289.7,150.3 -4301.6,150.3 "/>
<polyline class="st0" points="-4301.6,138.5 -4289.7,138.5 -4277.9,138.5 -4266.1,138.5 -4254.3,138.5 -4242.4,138.5 -4230.6,138.5 
	-4218.8,138.5 -4207,138.5 -4195.1,138.5 -4183.3,138.5 -4171.5,138.5 -4159.7,138.5 -4147.8,138.5 -4136,138.5 -4124.2,138.5 
	-4112.4,138.5 -4100.5,138.5 -4088.7,138.5 -4076.9,138.5 -4065.1,138.5 "/>
<polyline class="st0" points="-4301.6,126.6 -4289.7,126.6 -4277.9,126.6 -4266.1,126.6 -4254.3,126.6 -4242.4,126.6 -4230.6,126.6 
	-4218.8,126.6 -4207,126.6 -4195.1,126.6 -4183.3,126.6 -4171.5,126.6 -4159.7,126.6 -4147.8,126.6 -4136,126.6 -4124.2,126.6 
	-4112.4,126.6 -4100.5,126.6 -4088.7,126.6 -4076.9,126.6 -4065.1,126.6 "/>
<polygon points="-4207,197.6 -4207,209.4 -4230.6,209.4 -4230.6,162.1 -4218.8,162.1 -4218.8,197.6 "/>
<polyline class="st0" points="-4301.6,114.8 -4289.7,114.8 -4277.9,114.8 -4266.1,114.8 -4254.3,114.8 -4242.4,114.8 -4230.6,114.8 
	-4218.8,114.8 -4207,114.8 -4195.1,114.8 -4183.3,114.8 -4171.5,114.8 -4159.7,114.8 -4147.8,114.8 -4136,114.8 -4124.2,114.8 
	-4112.4,114.8 -4100.5,114.8 -4088.7,114.8 -4076.9,114.8 -4065.1,114.8 "/>
<line class="st0" x1="-4065.1" y1="103" x2="-4065.1" y2="339.5"/>
<line class="st0" x1="-4076.9" y1="103" x2="-4076.9" y2="339.5"/>
<line class="st0" x1="-4088.7" y1="103" x2="-4088.7" y2="339.5"/>
<line class="st0" x1="-4100.5" y1="103" x2="-4100.5" y2="339.5"/>
<line class="st0" x1="-4112.4" y1="103" x2="-4112.4" y2="339.5"/>
<line class="st0" x1="-4124.2" y1="103" x2="-4124.2" y2="339.5"/>
<line class="st0" x1="-4136" y1="103" x2="-4136" y2="339.5"/>
<line class="st0" x1="-4147.8" y1="103" x2="-4147.8" y2="339.5"/>
<line class="st0" x1="-4159.7" y1="103" x2="-4159.7" y2="339.5"/>
<line class="st0" x1="-4171.5" y1="103" x2="-4171.5" y2="339.5"/>
<line class="st0" x1="-4183.3" y1="103" x2="-4183.3" y2="339.5"/>
<line class="st0" x1="-4195.1" y1="103" x2="-4195.1" y2="339.5"/>
<polyline class="st0" points="-4207,339.5 -4207,327.6 -4207,315.8 -4207,304 -4207,292.2 -4207,280.3 -4207,268.5 -4207,256.7 
	-4207,244.9 "/>
<polyline class="st0" points="-4207,103 -4207,114.8 -4207,126.6 -4207,138.5 -4207,150.3 -4207,162.1 -4207,173.9 -4207,185.8 
	-4207,197.6 "/>
<line class="st0" x1="-4207" y1="221.2" x2="-4207" y2="209.4"/>
<polyline class="st0" points="-4218.8,339.5 -4218.8,327.6 -4218.8,315.8 -4218.8,304 -4218.8,292.2 -4218.8,280.3 -4218.8,268.5 
	-4218.8,256.7 -4218.8,244.9 "/>
<polyline class="st0" points="-4218.8,103 -4218.8,114.8 -4218.8,126.6 -4218.8,138.5 -4218.8,150.3 -4218.8,162.1 "/>
<line class="st0" x1="-4218.8" y1="221.2" x2="-4218.8" y2="209.4"/>
<polyline class="st0" points="-4230.6,339.5 -4230.6,327.6 -4230.6,315.8 -4230.6,304 -4230.6,292.2 -4230.6,280.3 -4230.6,268.5 
	-4230.6,256.7 -4230.6,244.9 "/>
<polyline class="st0" points="-4230.6,103 -4230.6,114.8 -4230.6,126.6 -4230.6,138.5 -4230.6,150.3 -4230.6,162.1 "/>
<line class="st0" x1="-4230.6" y1="221.2" x2="-4230.6" y2="209.4"/>
<polyline class="st0" points="-4242.4,339.5 -4242.4,327.6 -4242.4,315.8 -4242.4,304 -4242.4,292.2 -4242.4,280.3 -4242.4,268.5 
	-4242.4,256.7 -4242.4,244.9 "/>
<polyline class="st0" points="-4242.4,150.3 -4242.4,138.5 -4242.4,126.6 -4242.4,114.8 -4242.4,103 "/>
<polyline class="st0" points="-4254.3,339.5 -4254.3,327.6 -4254.3,315.8 -4254.3,304 -4254.3,292.2 -4254.3,280.3 -4254.3,268.5 
	-4254.3,256.7 -4254.3,244.9 "/>
<polyline class="st0" points="-4254.3,150.3 -4254.3,138.5 -4254.3,126.6 -4254.3,114.8 -4254.3,103 "/>
<polyline class="st0" points="-4266.1,339.5 -4266.1,327.6 -4266.1,315.8 -4266.1,304 -4266.1,292.2 -4266.1,280.3 -4266.1,268.5 
	-4266.1,256.7 -4266.1,244.9 "/>
<polyline class="st0" points="-4266.1,150.3 -4266.1,138.5 -4266.1,126.6 -4266.1,114.8 -4266.1,103 "/>
<polyline class="st0" points="-4277.9,103 -4277.9,114.8 -4277.9,126.6 -4277.9,138.5 -4277.9,150.3 -4277.9,162.1 -4277.9,173.9 
	-4277.9,185.8 -4277.9,197.6 -4277.9,209.4 -4277.9,221.2 -4277.9,233.1 -4277.9,244.9 -4277.9,256.7 -4277.9,268.5 -4277.9,280.3 
	-4277.9,292.2 -4277.9,304 -4277.9,315.8 -4277.9,327.6 -4277.9,339.5 "/>
<polygon points="-4207,221.2 -4207,244.9 -4266.1,244.9 -4266.1,150.3 -4242.4,150.3 -4242.4,221.2 "/>
<polyline class="st0" points="-4289.7,103 -4289.7,114.8 -4289.7,126.6 -4289.7,138.5 -4289.7,150.3 -4289.7,162.1 -4289.7,173.9 
	-4289.7,185.8 -4289.7,197.6 -4289.7,209.4 -4289.7,221.2 -4289.7,233.1 -4289.7,244.9 -4289.7,256.7 -4289.7,268.5 -4289.7,280.3 
	-4289.7,292.2 -4289.7,304 -4289.7,315.8 -4289.7,327.6 -4289.7,339.5 "/>
<path class="st0" d="M-3921.7,218.7C-3921.7,218.7-3921.7,218.7-3921.7,218.7c-0.4-3.4-1.4-6.5-3.1-9.3h-20.5v11.8h23.6v-1.6
	C-3921.6,219.3-3921.7,219-3921.7,218.7z M-3968.9,221.2h0.2v-0.1c0-1-0.1-2-0.2-3V221.2z M-4016.2,103v236.5h236.5V103H-4016.2z
	 M-3992.6,197.6h3.1c3.1,0.4,6.1,1.4,8.7,2.9c3.7,2.1,6.8,5.2,8.9,8.9c1.5,2.6,2.5,5.6,2.9,8.7c0.4-3.1,1.5-6.1,3-8.7
	c2.1-3.7,5.2-6.7,8.8-8.8c3-1.7,6.5-2.8,10.1-3h1.7v35.5h-20.8c-1.5-2.6-2.5-5.5-2.9-8.6v-0.2c0.1-1,0.2-2,0.2-3v-0.1
	c0-1-0.1-2-0.2-3c-0.1,1-0.2,2-0.2,3.1v0.1c0,1,0.1,2,0.2,3c-0.4,3.2-1.5,6.1-3,8.7h-20.7V197.6z"/>
<line class="st0" x1="-4016.2" y1="339.5" x2="-3779.7" y2="339.5"/>
<line class="st0" x1="-4016.2" y1="327.6" x2="-3779.7" y2="327.6"/>
<line class="st0" x1="-4016.2" y1="315.8" x2="-3779.7" y2="315.8"/>
<line class="st0" x1="-4016.2" y1="304" x2="-3779.7" y2="304"/>
<line class="st0" x1="-4016.2" y1="292.2" x2="-3779.7" y2="292.2"/>
<line class="st0" x1="-4016.2" y1="280.4" x2="-3779.7" y2="280.4"/>
<line class="st0" x1="-4016.2" y1="268.5" x2="-3779.7" y2="268.5"/>
<line class="st0" x1="-4016.2" y1="256.7" x2="-3779.7" y2="256.7"/>
<line class="st0" x1="-4016.2" y1="244.9" x2="-3779.7" y2="244.9"/>
<polyline class="st0" points="-3971.9,233.1 -3968.9,233.1 -3966,233.1 "/>
<polyline class="st0" points="-3945.3,233.1 -3933.5,233.1 -3924.7,233.1 -3921.6,233.1 -3918.6,233.1 -3909.8,233.1 -3898,233.1 
	-3886.2,233.1 -3877.5,233.1 -3874.3,233.1 -3871.4,233.1 -3862.5,233.1 -3850.7,233.1 -3838.9,233.1 -3830.1,233.1 -3827,233.1 
	-3824.1,233.1 -3815.2,233.1 -3803.4,233.1 -3791.6,233.1 -3782.8,233.1 -3779.7,233.1 "/>
<polyline class="st0" points="-3992.6,233.1 -4004.4,233.1 -4013.1,233.1 -4016.2,233.1 "/>
<polyline class="st0" points="-3969.1,221.2 -3968.9,221.2 -3968.7,221.2 "/>
<polyline class="st0" points="-3945.3,221.2 -3933.5,221.2 -3921.8,221.2 -3921.6,221.2 -3921.6,221.2 -3909.8,221.2 -3898,221.2 
	-3886.2,221.2 -3874.5,221.2 -3874.3,221.2 -3874.3,221.2 -3862.5,221.2 -3850.7,221.2 -3838.9,221.2 -3827.2,221.2 -3827,221.2 
	-3827,221.2 -3815.2,221.2 -3803.4,221.2 -3791.6,221.2 -3779.7,221.2 "/>
<polyline class="st0" points="-3992.6,221.2 -4004.4,221.2 -4016.2,221.2 "/>
<polyline class="st0" points="-3971.8,209.4 -3968.9,209.4 -3965.9,209.4 "/>
<polyline class="st0" points="-3945.3,209.4 -3933.5,209.4 -3924.8,209.4 -3921.6,209.4 -3918.7,209.4 -3909.8,209.4 -3898,209.4 
	-3886.2,209.4 -3877.4,209.4 -3874.3,209.4 -3871.3,209.4 -3862.5,209.4 -3850.7,209.4 -3838.9,209.4 -3830.2,209.4 -3827,209.4 
	-3824,209.4 -3815.2,209.4 -3803.4,209.4 -3791.6,209.4 -3782.9,209.4 -3779.7,209.4 "/>
<polyline class="st0" points="-3992.6,209.4 -4004.4,209.4 -4013.2,209.4 -4016.2,209.4 "/>
<polyline class="st0" points="-3989.4,197.6 -3980.8,197.6 -3968.9,197.6 -3957.1,197.6 -3947,197.6 "/>
<polyline class="st0" points="-3945.3,197.6 -3943.7,197.6 -3933.5,197.6 -3921.6,197.6 -3909.8,197.6 -3901.1,197.6 -3898,197.6 
	-3895,197.6 -3886.2,197.6 -3874.3,197.6 -3862.5,197.6 -3852.4,197.6 -3850.7,197.6 -3849.1,197.6 -3838.9,197.6 -3827,197.6 
	-3815.2,197.6 -3805.1,197.6 -3803.4,197.6 -3801.8,197.6 -3791.6,197.6 -3779.7,197.6 "/>
<polyline class="st0" points="-3992.6,197.6 -3995.6,197.6 -4004.4,197.6 -4016.2,197.6 "/>
<line class="st0" x1="-4016.2" y1="185.8" x2="-3779.7" y2="185.8"/>
<line class="st0" x1="-4016.2" y1="173.9" x2="-3779.7" y2="173.9"/>
<line class="st0" x1="-4016.2" y1="162.1" x2="-3779.7" y2="162.1"/>
<line class="st0" x1="-4016.2" y1="150.3" x2="-3779.7" y2="150.3"/>
<line class="st0" x1="-4016.2" y1="138.5" x2="-3779.7" y2="138.5"/>
<line class="st0" x1="-4016.2" y1="126.6" x2="-3779.7" y2="126.6"/>
<line class="st0" x1="-4016.2" y1="114.8" x2="-3779.7" y2="114.8"/>
<line class="st0" x1="-3779.7" y1="103" x2="-3779.7" y2="339.5"/>
<line class="st0" x1="-3791.6" y1="103" x2="-3791.6" y2="339.5"/>
<line class="st0" x1="-3803.4" y1="103" x2="-3803.4" y2="339.5"/>
<line class="st0" x1="-3815.2" y1="103" x2="-3815.2" y2="339.5"/>
<line class="st0" x1="-3827" y1="103" x2="-3827" y2="339.5"/>
<line class="st0" x1="-3838.9" y1="103" x2="-3838.9" y2="339.5"/>
<line class="st0" x1="-3850.7" y1="103" x2="-3850.7" y2="339.5"/>
<line class="st0" x1="-3862.5" y1="103" x2="-3862.5" y2="339.5"/>
<line class="st0" x1="-3874.3" y1="103" x2="-3874.3" y2="339.5"/>
<line class="st0" x1="-3886.2" y1="103" x2="-3886.2" y2="339.5"/>
<line class="st0" x1="-3898" y1="103" x2="-3898" y2="339.5"/>
<line class="st0" x1="-3909.8" y1="103" x2="-3909.8" y2="339.5"/>
<line class="st0" x1="-3921.6" y1="103" x2="-3921.6" y2="339.5"/>
<line class="st0" x1="-3933.5" y1="103" x2="-3933.5" y2="339.5"/>
<polyline class="st0" points="-3945.3,339.5 -3945.3,327.6 -3945.3,315.8 -3945.3,304 -3945.3,292.4 -3945.3,292.2 -3945.3,280.3 
	-3945.3,268.5 -3945.3,256.7 -3945.3,245.1 -3945.3,244.9 -3945.3,233.1 "/>
<polyline class="st0" points="-3945.3,197.6 -3945.3,197.5 -3945.3,185.8 -3945.3,173.9 -3945.3,162.1 -3945.3,150.3 -3945.3,138.5 
	-3945.3,126.6 -3945.3,114.8 -3945.3,103 "/>
<polyline class="st0" points="-3957.1,339.5 -3957.1,327.6 -3957.1,315.8 -3957.1,304 -3957.1,292.2 -3957.1,289.3 -3957.1,280.3 
	-3957.1,268.5 -3957.1,256.7 -3957.1,248 -3957.1,244.9 -3957.1,242 -3957.1,233.1 "/>
<polyline class="st0" points="-3957.1,200.6 -3957.1,197.6 -3957.1,185.8 -3957.1,173.9 -3957.1,162.1 -3957.1,150.3 -3957.1,138.5 
	-3957.1,126.6 -3957.1,114.8 -3957.1,103 "/>
<polyline class="st0" points="-3968.9,218.2 -3968.9,221.2 -3968.9,224.2 "/>
<polyline class="st0" points="-3968.9,224.4 -3968.9,233.1 -3968.9,244.9 -3968.9,256.7 -3968.9,264.9 -3968.9,266.1 -3968.9,268.5 
	-3968.9,271.3 -3968.9,272.1 -3968.9,280.3 -3968.9,292.2 -3968.9,304 -3968.9,315.8 -3968.9,327.6 -3968.9,339.5 "/>
<polyline class="st0" points="-3968.9,103 -3968.9,114.8 -3968.9,126.6 -3968.9,138.5 -3968.9,150.3 -3968.9,162.1 -3968.9,173.9 
	-3968.9,185.8 -3968.9,197.6 -3968.9,209.4 -3968.9,218.1 "/>
<polyline class="st0" points="-3980.8,233.1 -3980.8,241.8 -3980.8,244.9 -3980.8,247.8 -3980.8,256.7 -3980.8,268.5 -3980.8,280.3 
	-3980.8,289.2 -3980.8,292.2 -3980.8,304 -3980.8,315.8 -3980.8,327.6 -3980.8,339.5 "/>
<polyline class="st0" points="-3980.8,103 -3980.8,114.8 -3980.8,126.6 -3980.8,138.5 -3980.8,150.3 -3980.8,162.1 -3980.8,173.9 
	-3980.8,185.8 -3980.8,197.6 -3980.8,200.5 "/>
<polyline class="st0" points="-3992.6,233.1 -3992.6,244.7 -3992.6,244.9 -3992.6,244.9 -3992.6,256.7 -3992.6,268.5 -3992.6,280.3 
	-3992.6,292.2 -3992.6,292.3 -3992.6,304 -3992.6,315.8 -3992.6,327.6 -3992.6,339.5 "/>
<polyline class="st0" points="-3992.6,103 -3992.6,114.8 -3992.6,126.6 -3992.6,138.5 -3992.6,150.3 -3992.6,162.1 -3992.6,173.9 
	-3992.6,185.8 -3992.6,197.4 -3992.6,197.6 "/>
<polyline class="st0" points="-4004.4,103 -4004.4,114.8 -4004.4,126.6 -4004.4,138.5 -4004.4,150.3 -4004.4,162.1 -4004.4,173.9 
	-4004.4,185.8 -4004.4,197.6 -4004.4,200.6 -4004.4,209.4 -4004.4,221.2 -4004.4,233.1 -4004.4,241.8 -4004.4,244.9 -4004.4,248 
	-4004.4,256.7 -4004.4,268.5 -4004.4,280.3 -4004.4,289.1 -4004.4,292.2 -4004.4,304 -4004.4,315.8 -4004.4,327.6 -4004.4,339.5 "/>
<rect x="-4016.2" y="103" class="st1" width="47.3" height="47.3"/>
<rect x="-3968.9" y="103" class="st1" width="47.3" height="47.3"/>
<rect x="-3921.6" y="103" class="st1" width="47.3" height="47.3"/>
<rect x="-3874.3" y="103" class="st1" width="47.3" height="47.3"/>
<rect x="-3827" y="103" class="st1" width="47.3" height="47.3"/>
<rect x="-4016.2" y="150.3" class="st1" width="47.3" height="47.3"/>
<rect x="-3968.9" y="150.3" class="st1" width="47.3" height="47.3"/>
<rect x="-3921.6" y="150.3" class="st1" width="47.3" height="47.3"/>
<rect x="-3874.3" y="150.3" class="st1" width="47.3" height="47.3"/>
<rect x="-3827" y="150.3" class="st1" width="47.3" height="47.3"/>
<path class="st1" d="M-3968.9,197.6v20.5c-0.4-3.1-1.4-6.1-2.9-8.7c-2.1-3.7-5.2-6.8-8.9-8.9c-2.6-1.5-5.6-2.5-8.7-2.9H-3968.9z"/>
<path class="st1" d="M-3968.9,218.2v26.7h-47.3v-47.3h23.6v35.5h20.7c1.5-2.6,2.6-5.6,3-8.7c-0.1-1-0.2-2-0.2-3v-0.1
	C-3969.1,220.2-3969.1,219.2-3968.9,218.2z"/>
<path class="st1" d="M-3968.7,221.2c0,1-0.1,2-0.2,3v-6.1C-3968.8,219.1-3968.7,220.1-3968.7,221.2L-3968.7,221.2z"/>
<path class="st1" d="M-3965.9,209.4c-1.5,2.6-2.6,5.6-3,8.7v-20.5h22c-3.7,0.2-7.1,1.3-10.1,3
	C-3960.8,202.7-3963.8,205.7-3965.9,209.4z"/>
<path class="st1" d="M-3921.6,197.6v47.3h-47.3v-20.4c0.4,3.1,1.4,6,2.9,8.6h20.8v-35.5H-3921.6z"/>
<rect x="-3921.6" y="197.6" class="st1" width="47.3" height="47.3"/>
<rect x="-3874.3" y="197.6" class="st1" width="47.3" height="47.3"/>
<rect x="-3827" y="197.6" class="st1" width="47.3" height="47.3"/>
<rect x="-4016.2" y="244.9" class="st1" width="47.3" height="47.3"/>
<rect x="-3968.9" y="244.9" class="st1" width="47.3" height="47.3"/>
<rect x="-3921.6" y="244.9" class="st1" width="47.3" height="47.3"/>
<rect x="-3874.3" y="244.9" class="st1" width="47.3" height="47.3"/>
<rect x="-3827" y="244.9" class="st1" width="47.3" height="47.3"/>
<rect x="-4016.2" y="292.2" class="st1" width="47.3" height="47.3"/>
<rect x="-3968.9" y="292.2" class="st1" width="47.3" height="47.3"/>
<rect x="-3921.6" y="292.2" class="st1" width="47.3" height="47.3"/>
<rect x="-3874.3" y="292.2" class="st1" width="47.3" height="47.3"/>
<rect x="-3827" y="292.2" class="st1" width="47.3" height="47.3"/>
<rect x="-4174.4" y="493.8" class="st0" width="267.4" height="267.4"/>
<line class="st0" x1="-4136.1" y1="493.8" x2="-4136.1" y2="761.2"/>
<line class="st0" x1="-4117" y1="493.8" x2="-4117" y2="761.2"/>
<line class="st0" x1="-4155.2" y1="493.8" x2="-4155.2" y2="761.2"/>
<line class="st0" x1="-4097.9" y1="493.8" x2="-4097.9" y2="761.2"/>
<line class="st0" x1="-4078.8" y1="493.8" x2="-4078.8" y2="761.2"/>
<line class="st0" x1="-4059.7" y1="493.8" x2="-4059.7" y2="761.2"/>
<line class="st0" x1="-4040.6" y1="493.8" x2="-4040.6" y2="761.2"/>
<line class="st0" x1="-4021.5" y1="493.8" x2="-4021.5" y2="761.2"/>
<line class="st0" x1="-4002.4" y1="493.8" x2="-4002.4" y2="761.2"/>
<line class="st0" x1="-3983.3" y1="493.8" x2="-3983.3" y2="761.2"/>
<line class="st0" x1="-3964.2" y1="493.8" x2="-3964.2" y2="761.2"/>
<line class="st0" x1="-3945.1" y1="493.8" x2="-3945.1" y2="761.2"/>
<line class="st0" x1="-3926" y1="493.8" x2="-3926" y2="761.2"/>
<line class="st0" x1="-3906.9" y1="723" x2="-4174.4" y2="723"/>
<line class="st0" x1="-3906.9" y1="703.9" x2="-4174.4" y2="703.9"/>
<line class="st0" x1="-3906.9" y1="742.1" x2="-4174.4" y2="742.1"/>
<line class="st0" x1="-3906.9" y1="684.8" x2="-4174.4" y2="684.8"/>
<line class="st0" x1="-3906.9" y1="665.7" x2="-4174.4" y2="665.7"/>
<line class="st0" x1="-3906.9" y1="646.6" x2="-4174.4" y2="646.6"/>
<line class="st0" x1="-3906.9" y1="627.5" x2="-4174.4" y2="627.5"/>
<line class="st0" x1="-3906.9" y1="608.4" x2="-4174.4" y2="608.4"/>
<line class="st0" x1="-3906.9" y1="589.3" x2="-4174.4" y2="589.3"/>
<line class="st0" x1="-3906.9" y1="570.2" x2="-4174.4" y2="570.2"/>
<line class="st0" x1="-3906.9" y1="551.1" x2="-4174.4" y2="551.1"/>
<line class="st0" x1="-3906.9" y1="532" x2="-4174.4" y2="532"/>
<line class="st0" x1="-3906.9" y1="512.9" x2="-4174.4" y2="512.9"/>
<polyline class="st0" points="-3926,493.8 -3906.9,532 -3926,570.2 -3906.9,608.4 -3926,646.6 -3906.9,684.8 -3926,723 
	-3906.9,761.2 "/>
<polyline class="st0" points="-3945.1,493.8 -3926,532 -3945.1,570.2 -3926,608.4 -3945.1,646.6 -3926,684.8 -3945.1,723 
	-3926,761.2 "/>
<polyline class="st0" points="-3964.2,493.8 -3945.1,532 -3964.2,570.2 -3945.1,608.4 -3964.2,646.6 -3945.1,684.8 -3964.2,723 
	-3945.1,761.2 "/>
<polyline class="st0" points="-3983.3,493.8 -3964.2,532 -3983.3,570.2 -3964.2,608.4 -3983.3,646.6 -3964.2,684.8 -3983.3,723 
	-3964.2,761.2 "/>
<polyline class="st0" points="-4002.4,493.8 -3983.3,532 -4002.4,570.2 -3983.3,608.4 -4002.4,646.6 -3983.3,684.8 -4002.4,723 
	-3983.3,761.2 "/>
<polyline class="st0" points="-4021.5,493.8 -4002.4,532 -4021.5,570.2 -4002.4,608.4 -4021.5,646.6 -4002.4,684.8 -4021.5,723 
	-4002.4,761.2 "/>
<polyline class="st0" points="-4040.6,493.8 -4021.5,532 -4040.6,570.2 -4021.5,608.4 -4040.6,646.6 -4021.5,684.8 -4040.6,723 
	-4021.5,761.2 "/>
<polyline class="st0" points="-4059.7,493.8 -4040.6,532 -4059.7,570.2 -4040.6,608.4 -4059.7,646.6 -4040.6,684.8 -4059.7,723 
	-4040.6,761.2 "/>
<polyline class="st0" points="-4078.8,493.8 -4059.7,532 -4078.8,570.2 -4059.7,608.4 -4078.8,646.6 -4059.7,684.8 -4078.8,723 
	-4059.7,761.2 "/>
<polyline class="st0" points="-4097.9,493.8 -4078.8,532 -4097.9,570.2 -4078.8,608.4 -4097.9,646.6 -4078.8,684.8 -4097.9,723 
	-4078.8,761.2 "/>
<polyline class="st0" points="-4117,493.8 -4097.9,532 -4117,570.2 -4097.9,608.4 -4117,646.6 -4097.9,684.8 -4117,723 
	-4097.9,761.2 "/>
<polyline class="st0" points="-4136.1,493.8 -4117,532 -4136.1,570.2 -4117,608.4 -4136.1,646.6 -4117,684.8 -4136.1,723 
	-4117,761.2 "/>
<polyline class="st0" points="-4155.2,493.8 -4136.1,532 -4155.2,570.2 -4136.1,608.4 -4155.2,646.6 -4136.1,684.8 -4155.2,723 
	-4136.1,761.2 "/>
<polyline class="st0" points="-4174.4,493.8 -4155.2,532 -4174.4,570.2 -4155.2,608.4 -4174.4,646.6 -4155.2,684.8 -4174.4,723 
	-4155.2,761.2 "/>
<polyline class="st0" points="-3926,761.2 -3906.9,723 -3926,684.8 -3906.9,646.6 -3926,608.4 -3906.9,570.2 -3926,532 
	-3906.9,493.8 "/>
<polyline class="st0" points="-3945.1,761.2 -3926,723 -3945.1,684.8 -3926,646.6 -3945.1,608.4 -3926,570.2 -3945.1,532 
	-3926,493.8 "/>
<polyline class="st0" points="-3964.2,761.2 -3945.1,723 -3964.2,684.8 -3945.1,646.6 -3964.2,608.4 -3945.1,570.2 -3964.2,532 
	-3945.1,493.8 "/>
<polyline class="st0" points="-3983.3,761.2 -3964.2,723 -3983.3,684.8 -3964.2,646.6 -3983.3,608.4 -3964.2,570.2 -3983.3,532 
	-3964.2,493.8 "/>
<polyline class="st0" points="-4002.4,761.2 -3983.3,723 -4002.4,684.8 -3983.3,646.6 -4002.4,608.4 -3983.3,570.2 -4002.4,532 
	-3983.3,493.8 "/>
<polyline class="st0" points="-4021.5,761.2 -4002.4,723 -4021.5,684.8 -4002.4,646.6 -4021.5,608.4 -4002.4,570.2 -4021.5,532 
	-4002.4,493.8 "/>
<polyline class="st0" points="-4040.6,761.2 -4021.5,723 -4040.6,684.8 -4021.5,646.6 -4040.6,608.4 -4021.5,570.2 -4040.6,532 
	-4021.5,493.8 "/>
<polyline class="st0" points="-4059.7,761.2 -4040.6,723 -4059.7,684.8 -4040.6,646.6 -4059.7,608.4 -4040.6,570.2 -4059.7,532 
	-4040.6,493.8 "/>
<polyline class="st0" points="-4078.8,761.2 -4059.7,723 -4078.8,684.8 -4059.7,646.6 -4078.8,608.4 -4059.7,570.2 -4078.8,532 
	-4059.7,493.8 "/>
<polyline class="st0" points="-4097.9,761.2 -4078.8,723 -4097.9,684.8 -4078.8,646.6 -4097.9,608.4 -4078.8,570.2 -4097.9,532 
	-4078.8,493.8 "/>
<polyline class="st0" points="-4117,761.2 -4097.9,723 -4117,684.8 -4097.9,646.6 -4117,608.4 -4097.9,570.2 -4117,532 
	-4097.9,493.8 "/>
<polyline class="st0" points="-4136.1,761.2 -4117,723 -4136.1,684.8 -4117,646.6 -4136.1,608.4 -4117,570.2 -4136.1,532 
	-4117,493.8 "/>
<polyline class="st0" points="-4155.2,761.2 -4136.1,723 -4155.2,684.8 -4136.1,646.6 -4155.2,608.4 -4136.1,570.2 -4155.2,532 
	-4136.1,493.8 "/>
<polyline class="st0" points="-4174.4,761.2 -4155.2,723 -4174.4,684.8 -4155.2,646.6 -4174.4,608.4 -4155.2,570.2 -4174.4,532 
	-4155.2,493.8 "/>
<rect x="-3879.7" y="493.8" class="st0" width="267.4" height="267.4"/>
<line class="st0" x1="-3612.3" y1="532" x2="-3879.7" y2="532"/>
<line class="st0" x1="-3612.3" y1="551.1" x2="-3879.7" y2="551.1"/>
<line class="st0" x1="-3612.3" y1="512.9" x2="-3879.7" y2="512.9"/>
<line class="st0" x1="-3612.3" y1="570.2" x2="-3879.7" y2="570.2"/>
<line class="st0" x1="-3612.3" y1="589.3" x2="-3879.7" y2="589.3"/>
<line class="st0" x1="-3612.3" y1="608.4" x2="-3879.7" y2="608.4"/>
<line class="st0" x1="-3612.3" y1="627.5" x2="-3879.7" y2="627.5"/>
<line class="st0" x1="-3612.3" y1="646.6" x2="-3879.7" y2="646.6"/>
<line class="st0" x1="-3612.3" y1="665.7" x2="-3879.7" y2="665.7"/>
<line class="st0" x1="-3612.3" y1="684.8" x2="-3879.7" y2="684.8"/>
<line class="st0" x1="-3612.3" y1="703.9" x2="-3879.7" y2="703.9"/>
<line class="st0" x1="-3612.3" y1="723" x2="-3879.7" y2="723"/>
<line class="st0" x1="-3612.3" y1="742.1" x2="-3879.7" y2="742.1"/>
<line class="st0" x1="-3841.5" y1="761.2" x2="-3841.5" y2="493.8"/>
<line class="st0" x1="-3822.4" y1="761.2" x2="-3822.4" y2="493.8"/>
<line class="st0" x1="-3860.6" y1="761.2" x2="-3860.6" y2="493.8"/>
<line class="st0" x1="-3803.3" y1="761.2" x2="-3803.3" y2="493.8"/>
<line class="st0" x1="-3784.2" y1="761.2" x2="-3784.2" y2="493.8"/>
<line class="st0" x1="-3765.1" y1="761.2" x2="-3765.1" y2="493.8"/>
<line class="st0" x1="-3746" y1="761.2" x2="-3746" y2="493.8"/>
<line class="st0" x1="-3726.9" y1="761.2" x2="-3726.9" y2="493.8"/>
<line class="st0" x1="-3707.8" y1="761.2" x2="-3707.8" y2="493.8"/>
<line class="st0" x1="-3688.7" y1="761.2" x2="-3688.7" y2="493.8"/>
<line class="st0" x1="-3669.6" y1="761.2" x2="-3669.6" y2="493.8"/>
<line class="st0" x1="-3650.5" y1="761.2" x2="-3650.5" y2="493.8"/>
<line class="st0" x1="-3631.4" y1="761.2" x2="-3631.4" y2="493.8"/>
<polyline class="st0" points="-3612.3,742.1 -3650.5,761.2 -3688.7,742.1 -3726.9,761.2 -3765.1,742.1 -3803.3,761.2 -3841.5,742.1 
	-3879.7,761.2 "/>
<polyline class="st0" points="-3612.3,723 -3650.5,742.1 -3688.7,723 -3726.9,742.1 -3765.1,723 -3803.3,742.1 -3841.5,723 
	-3879.7,742.1 "/>
<polyline class="st0" points="-3612.3,703.9 -3650.5,723 -3688.7,703.9 -3726.9,723 -3765.1,703.9 -3803.3,723 -3841.5,703.9 
	-3879.7,723 "/>
<polyline class="st0" points="-3612.3,684.8 -3650.5,703.9 -3688.7,684.8 -3726.9,703.9 -3765.1,684.8 -3803.3,703.9 -3841.5,684.8 
	-3879.7,703.9 "/>
<polyline class="st0" points="-3612.3,665.7 -3650.5,684.8 -3688.7,665.7 -3726.9,684.8 -3765.1,665.7 -3803.3,684.8 -3841.5,665.7 
	-3879.7,684.8 "/>
<polyline class="st0" points="-3612.3,646.6 -3650.5,665.7 -3688.7,646.6 -3726.9,665.7 -3765.1,646.6 -3803.3,665.7 -3841.5,646.6 
	-3879.7,665.7 "/>
<polyline class="st0" points="-3612.3,627.5 -3650.5,646.6 -3688.7,627.5 -3726.9,646.6 -3765.1,627.5 -3803.3,646.6 -3841.5,627.5 
	-3879.7,646.6 "/>
<polyline class="st0" points="-3612.3,608.4 -3650.5,627.5 -3688.7,608.4 -3726.9,627.5 -3765.1,608.4 -3803.3,627.5 -3841.5,608.4 
	-3879.7,627.5 "/>
<polyline class="st0" points="-3612.3,589.3 -3650.5,608.4 -3688.7,589.3 -3726.9,608.4 -3765.1,589.3 -3803.3,608.4 -3841.5,589.3 
	-3879.7,608.4 "/>
<polyline class="st0" points="-3612.3,570.2 -3650.5,589.3 -3688.7,570.2 -3726.9,589.3 -3765.1,570.2 -3803.3,589.3 -3841.5,570.2 
	-3879.7,589.3 "/>
<polyline class="st0" points="-3612.3,551.1 -3650.5,570.2 -3688.7,551.1 -3726.9,570.2 -3765.1,551.1 -3803.3,570.2 -3841.5,551.1 
	-3879.7,570.2 "/>
<polyline class="st0" points="-3612.3,532 -3650.5,551.1 -3688.7,532 -3726.9,551.1 -3765.1,532 -3803.3,551.1 -3841.5,532 
	-3879.7,551.1 "/>
<polyline class="st0" points="-3612.3,512.9 -3650.5,532 -3688.7,512.9 -3726.9,532 -3765.1,512.9 -3803.3,532 -3841.5,512.9 
	-3879.7,532 "/>
<polyline class="st0" points="-3612.3,493.8 -3650.5,512.9 -3688.7,493.8 -3726.9,512.9 -3765.1,493.8 -3803.3,512.9 -3841.5,493.8 
	-3879.7,512.9 "/>
<polyline class="st0" points="-3879.7,742.1 -3841.5,761.2 -3803.3,742.1 -3765.1,761.2 -3726.9,742.1 -3688.7,761.2 -3650.5,742.1 
	-3612.3,761.2 "/>
<polyline class="st0" points="-3879.7,723 -3841.5,742.1 -3803.3,723 -3765.1,742.1 -3726.9,723 -3688.7,742.1 -3650.5,723 
	-3612.3,742.1 "/>
<polyline class="st0" points="-3879.7,703.9 -3841.5,723 -3803.3,703.9 -3765.1,723 -3726.9,703.9 -3688.7,723 -3650.5,703.9 
	-3612.3,723 "/>
<polyline class="st0" points="-3879.7,684.8 -3841.5,703.9 -3803.3,684.8 -3765.1,703.9 -3726.9,684.8 -3688.7,703.9 -3650.5,684.8 
	-3612.3,703.9 "/>
<polyline class="st0" points="-3879.7,665.7 -3841.5,684.8 -3803.3,665.7 -3765.1,684.8 -3726.9,665.7 -3688.7,684.8 -3650.5,665.7 
	-3612.3,684.8 "/>
<polyline class="st0" points="-3879.7,646.6 -3841.5,665.7 -3803.3,646.6 -3765.1,665.7 -3726.9,646.6 -3688.7,665.7 -3650.5,646.6 
	-3612.3,665.7 "/>
<polyline class="st0" points="-3879.7,627.5 -3841.5,646.6 -3803.3,627.5 -3765.1,646.6 -3726.9,627.5 -3688.7,646.6 -3650.5,627.5 
	-3612.3,646.6 "/>
<polyline class="st0" points="-3879.7,608.4 -3841.5,627.5 -3803.3,608.4 -3765.1,627.5 -3726.9,608.4 -3688.7,627.5 -3650.5,608.4 
	-3612.3,627.5 "/>
<polyline class="st0" points="-3879.7,589.3 -3841.5,608.4 -3803.3,589.3 -3765.1,608.4 -3726.9,589.3 -3688.7,608.4 -3650.5,589.3 
	-3612.3,608.4 "/>
<polyline class="st0" points="-3879.7,570.2 -3841.5,589.3 -3803.3,570.2 -3765.1,589.3 -3726.9,570.2 -3688.7,589.3 -3650.5,570.2 
	-3612.3,589.3 "/>
<polyline class="st0" points="-3879.7,551.1 -3841.5,570.2 -3803.3,551.1 -3765.1,570.2 -3726.9,551.1 -3688.7,570.2 -3650.5,551.1 
	-3612.3,570.2 "/>
<polyline class="st0" points="-3879.7,532 -3841.5,551.1 -3803.3,532 -3765.1,551.1 -3726.9,532 -3688.7,551.1 -3650.5,532 
	-3612.3,551.1 "/>
<polyline class="st0" points="-3879.7,512.9 -3841.5,532 -3803.3,512.9 -3765.1,532 -3726.9,512.9 -3688.7,532 -3650.5,512.9 
	-3612.3,532 "/>
<polyline class="st0" points="-3879.7,493.8 -3841.5,512.9 -3803.3,493.8 -3765.1,512.9 -3726.9,493.8 -3688.7,512.9 -3650.5,493.8 
	-3612.3,512.9 "/>
<rect x="-4469" y="493.8" class="st0" width="267.4" height="267.4"/>
<line class="st0" x1="-4469" y1="723" x2="-4201.5" y2="723"/>
<line class="st0" x1="-4469" y1="703.9" x2="-4201.5" y2="703.9"/>
<line class="st0" x1="-4469" y1="742.1" x2="-4201.5" y2="742.1"/>
<line class="st0" x1="-4469" y1="684.8" x2="-4201.5" y2="684.8"/>
<line class="st0" x1="-4469" y1="665.7" x2="-4201.5" y2="665.7"/>
<line class="st0" x1="-4469" y1="646.6" x2="-4201.5" y2="646.6"/>
<line class="st0" x1="-4469" y1="627.5" x2="-4201.5" y2="627.5"/>
<line class="st0" x1="-4469" y1="608.4" x2="-4201.5" y2="608.4"/>
<line class="st0" x1="-4469" y1="589.3" x2="-4201.5" y2="589.3"/>
<line class="st0" x1="-4469" y1="570.2" x2="-4201.5" y2="570.2"/>
<line class="st0" x1="-4469" y1="551.1" x2="-4201.5" y2="551.1"/>
<line class="st0" x1="-4469" y1="532" x2="-4201.5" y2="532"/>
<line class="st0" x1="-4469" y1="512.9" x2="-4201.5" y2="512.9"/>
<line class="st0" x1="-4239.8" y1="493.8" x2="-4239.8" y2="761.2"/>
<line class="st0" x1="-4258.9" y1="493.8" x2="-4258.9" y2="761.2"/>
<line class="st0" x1="-4220.7" y1="493.8" x2="-4220.7" y2="761.2"/>
<line class="st0" x1="-4278" y1="493.8" x2="-4278" y2="761.2"/>
<line class="st0" x1="-4297.1" y1="493.8" x2="-4297.1" y2="761.2"/>
<line class="st0" x1="-4316.2" y1="493.8" x2="-4316.2" y2="761.2"/>
<line class="st0" x1="-4335.3" y1="493.8" x2="-4335.3" y2="761.2"/>
<line class="st0" x1="-4354.4" y1="493.8" x2="-4354.4" y2="761.2"/>
<line class="st0" x1="-4373.5" y1="493.8" x2="-4373.5" y2="761.2"/>
<line class="st0" x1="-4392.6" y1="493.8" x2="-4392.6" y2="761.2"/>
<line class="st0" x1="-4411.7" y1="493.8" x2="-4411.7" y2="761.2"/>
<line class="st0" x1="-4430.8" y1="493.8" x2="-4430.8" y2="761.2"/>
<line class="st0" x1="-4449.9" y1="493.8" x2="-4449.9" y2="761.2"/>
<polyline class="st0" points="-4469,532 -4430.8,493.8 -4392.6,532 -4354.4,493.8 -4316.2,532 -4278,493.8 -4239.8,532 
	-4201.5,493.8 "/>
<polyline class="st0" points="-4469,570.2 -4430.8,532 -4392.6,570.2 -4354.4,532 -4316.2,570.2 -4278,532 -4239.8,570.2 
	-4201.5,532 "/>
<polyline class="st0" points="-4469,608.4 -4430.8,570.2 -4392.6,608.4 -4354.4,570.2 -4316.2,608.4 -4278,570.2 -4239.8,608.4 
	-4201.5,570.2 "/>
<polyline class="st0" points="-4469,646.6 -4430.8,608.4 -4392.6,646.6 -4354.4,608.4 -4316.2,646.6 -4278,608.4 -4239.8,646.6 
	-4201.5,608.4 "/>
<polyline class="st0" points="-4469,684.8 -4430.8,646.6 -4392.6,684.8 -4354.4,646.6 -4316.2,684.8 -4278,646.6 -4239.8,684.8 
	-4201.5,646.6 "/>
<polyline class="st0" points="-4469,723 -4430.8,684.8 -4392.6,723 -4354.4,684.8 -4316.2,723 -4278,684.8 -4239.8,723 
	-4201.5,684.8 "/>
<polyline class="st0" points="-4469,761.2 -4430.8,723 -4392.6,761.2 -4354.4,723 -4316.2,761.2 -4278,723 -4239.8,761.2 
	-4201.5,723 "/>
<polyline class="st0" points="-4201.5,532 -4239.8,493.8 -4278,532 -4316.2,493.8 -4354.4,532 -4392.6,493.8 -4430.8,532 
	-4469,493.8 "/>
<polyline class="st0" points="-4201.5,570.2 -4239.8,532 -4278,570.2 -4316.2,532 -4354.4,570.2 -4392.6,532 -4430.8,570.2 
	-4469,532 "/>
<polyline class="st0" points="-4201.5,608.4 -4239.8,570.2 -4278,608.4 -4316.2,570.2 -4354.4,608.4 -4392.6,570.2 -4430.8,608.4 
	-4469,570.2 "/>
<polyline class="st0" points="-4201.5,646.6 -4239.8,608.4 -4278,646.6 -4316.2,608.4 -4354.4,646.6 -4392.6,608.4 -4430.8,646.6 
	-4469,608.4 "/>
<polyline class="st0" points="-4201.5,684.8 -4239.8,646.6 -4278,684.8 -4316.2,646.6 -4354.4,684.8 -4392.6,646.6 -4430.8,684.8 
	-4469,646.6 "/>
<polyline class="st0" points="-4201.5,723 -4239.8,684.8 -4278,723 -4316.2,684.8 -4354.4,723 -4392.6,684.8 -4430.8,723 
	-4469,684.8 "/>
<polyline class="st0" points="-4201.5,761.2 -4239.8,723 -4278,761.2 -4316.2,723 -4354.4,761.2 -4392.6,723 -4430.8,761.2 
	-4469,723 "/>
<polygon class="st0" points="-4040.6,939.5 -4050.2,958.6 -4059.7,939.5 -4069.3,958.6 -4078.8,939.5 -4088.4,958.6 -4097.9,939.5 
	-4107.5,920.4 -4117,901.3 -4107.5,882.2 -4097.9,863.1 -4088.4,882.2 -4078.8,901.3 -4069.3,882.2 -4059.7,901.3 -4050.2,882.2 
	-4040.6,863.1 -4031.1,882.2 -4021.5,901.3 -4031.1,920.4 "/>
<path class="st0" d="M-4174.4,786.7v267.4h267.4V786.7H-4174.4z M-4059.7,977.7l-9.6,19.1l-9.6-19.1l-9.6,19.1l-9.6-19.1l-9.5-19.1
	l-9.6-19.1l-9.5-19.1l-9.5-19.1l9.5-19.1l9.5-19.1l9.6-19.1l9.5-19.1l9.6,19.1l9.6,19.1l9.6-19.1l9.6,19.1l9.6-19.1l9.5-19.1
	l9.6,19.1l9.6,19.1l9.6,19.1l9.6,19.1l-9.6,19.1l-9.6,19.1l-9.6,19.1l-9.6,19.1l-9.5,19.1L-4059.7,977.7z"/>
<polyline class="st0" points="-3926,786.7 -3906.9,824.9 -3926,863.1 -3906.9,901.3 -3926,939.5 -3906.9,977.7 -3926,1015.9 
	-3906.9,1054.1 "/>
<polyline class="st0" points="-3945.1,786.7 -3926,824.9 -3945.1,863.1 -3926,901.3 -3945.1,939.5 -3926,977.7 -3945.1,1015.9 
	-3926,1054.1 "/>
<polyline class="st0" points="-3945.1,1054.1 -3954.7,1035 -3964.2,1015.9 -3954.7,996.8 -3945.1,977.7 -3954.7,958.6 
	-3964.2,939.5 -3954.7,920.4 -3945.1,901.3 -3954.7,882.2 -3964.2,863.1 -3954.7,844 -3945.1,824.9 -3954.7,805.8 -3964.2,786.7 "/>
<polyline class="st0" points="-3964.2,1054.1 -3973.8,1035 -3983.3,1015.9 -3973.8,996.8 -3964.2,977.7 -3973.8,958.6 
	-3983.3,939.5 -3973.8,920.4 -3964.2,901.3 -3973.8,882.2 -3983.3,863.1 -3973.8,844 -3964.2,824.9 -3973.8,805.8 -3983.3,786.7 "/>
<polyline class="st0" points="-3983.3,1054.1 -3992.9,1035 -4002.4,1015.9 -3992.9,996.8 -3983.3,977.7 -3992.9,958.6 
	-4002.4,939.5 -3992.9,920.4 -3983.3,901.3 -3992.9,882.2 -4002.4,863.1 -3992.9,844 -3983.3,824.9 -3992.9,805.8 -4002.4,786.7 "/>
<polyline class="st0" points="-4002.4,1054.1 -4012,1035 -4021.5,1015.9 -4012,996.8 -4002.4,977.7 -4012,958.6 -4021.5,939.5 "/>
<polyline class="st0" points="-4021.5,863.1 -4012,844 -4002.4,824.9 -4012,805.8 -4021.5,786.7 "/>
<polyline class="st0" points="-4021.5,1054.1 -4031.1,1035 -4040.6,1015.9 -4031.1,996.8 -4021.5,977.7 -4031.1,958.6 "/>
<polyline class="st0" points="-4031.1,844 -4021.5,824.9 -4031.1,805.8 -4040.6,786.7 "/>
<polyline class="st0" points="-4040.6,1054.1 -4050.2,1035 -4059.7,1015.9 -4050.2,996.8 "/>
<polyline class="st0" points="-4059.7,939.5 -4050.2,920.4 -4040.6,901.3 -4050.2,882.2 "/>
<polyline class="st0" points="-4040.6,824.9 -4050.2,805.8 -4059.7,786.7 "/>
<polyline class="st0" points="-4059.7,1054.1 -4069.3,1035 -4078.8,1015.9 -4069.3,996.8 "/>
<polyline class="st0" points="-4078.8,939.5 -4069.3,920.4 -4059.7,901.3 "/>
<polyline class="st0" points="-4069.3,844 -4059.7,824.9 -4069.3,805.8 -4078.8,786.7 "/>
<polyline class="st0" points="-4078.8,1054.1 -4088.4,1035 -4097.9,1015.9 -4088.4,996.8 "/>
<polyline class="st0" points="-4097.9,939.5 -4088.4,920.4 -4078.8,901.3 "/>
<polyline class="st0" points="-4088.4,844 -4078.8,824.9 -4088.4,805.8 -4097.9,786.7 "/>
<polyline class="st0" points="-4097.9,1054.1 -4107.5,1035 -4117,1015.9 -4107.5,996.8 -4097.9,977.7 "/>
<polyline class="st0" points="-4107.5,920.4 -4097.9,901.3 -4107.5,882.2 "/>
<polyline class="st0" points="-4097.9,824.9 -4107.5,805.8 -4117,786.7 "/>
<polyline class="st0" points="-4117,1054.1 -4126.6,1035 -4136.1,1015.9 -4126.6,996.8 -4117,977.7 -4126.6,958.6 -4136.1,939.5 
	-4126.6,920.4 "/>
<polyline class="st0" points="-4126.6,882.2 -4136.1,863.1 -4126.6,844 -4117,824.9 -4126.6,805.8 -4136.1,786.7 "/>
<polyline class="st0" points="-4136.1,1054.1 -4145.7,1035 -4155.2,1015.9 -4145.7,996.8 -4136.1,977.7 -4145.7,958.6 
	-4155.2,939.5 -4145.7,920.4 -4136.1,901.3 -4145.7,882.2 -4155.2,863.1 -4145.7,844 -4136.1,824.9 -4145.7,805.8 -4155.2,786.7 "/>
<polyline class="st0" points="-4155.2,1054.1 -4164.8,1035 -4174.4,1015.9 -4164.8,996.8 -4155.2,977.7 -4164.8,958.6 
	-4174.4,939.5 -4164.8,920.4 -4155.2,901.3 -4164.8,882.2 -4174.4,863.1 -4164.8,844 -4155.2,824.9 -4164.8,805.8 -4174.4,786.7 "/>
<polyline class="st0" points="-3926,1054.1 -3906.9,1015.9 -3926,977.7 -3906.9,939.5 -3926,901.3 -3906.9,863.1 -3926,824.9 
	-3906.9,786.7 "/>
<polyline class="st0" points="-3945.1,1054.1 -3926,1015.9 -3945.1,977.7 -3926,939.5 -3945.1,901.3 -3926,863.1 -3945.1,824.9 
	-3926,786.7 "/>
<polyline class="st0" points="-3964.2,1054.1 -3945.1,1015.9 -3964.2,977.7 -3945.1,939.5 -3964.2,901.3 -3945.1,863.1 
	-3964.2,824.9 -3945.1,786.7 "/>
<polyline class="st0" points="-3964.2,786.7 -3973.8,805.8 -3983.3,824.9 -3973.8,844 -3964.2,863.1 -3973.8,882.2 -3983.3,901.3 
	-3973.8,920.4 -3964.2,939.5 -3973.8,958.6 -3983.3,977.7 -3973.8,996.8 -3964.2,1015.9 -3973.8,1035 -3983.3,1054.1 "/>
<polyline class="st0" points="-3983.3,786.7 -3992.9,805.8 -4002.4,824.9 -3992.9,844 -3983.3,863.1 -3992.9,882.2 -4002.4,901.3 
	-3992.9,920.4 -3983.3,939.5 -3992.9,958.6 -4002.4,977.7 -3992.9,996.8 -3983.3,1015.9 -3992.9,1035 -4002.4,1054.1 "/>
<polyline class="st0" points="-4002.4,786.7 -4012,805.8 -4021.5,824.9 -4012,844 -4002.4,863.1 -4012,882.2 "/>
<polyline class="st0" points="-4012,920.4 -4002.4,939.5 -4012,958.6 -4021.5,977.7 -4012,996.8 -4002.4,1015.9 -4012,1035 
	-4021.5,1054.1 "/>
<polyline class="st0" points="-4021.5,786.7 -4031.1,805.8 -4040.6,824.9 "/>
<polyline class="st0" points="-4031.1,882.2 -4040.6,901.3 -4031.1,920.4 "/>
<polyline class="st0" points="-4040.6,977.7 -4031.1,996.8 -4021.5,1015.9 -4031.1,1035 -4040.6,1054.1 "/>
<polyline class="st0" points="-4040.6,786.7 -4050.2,805.8 -4059.7,824.9 -4050.2,844 "/>
<polyline class="st0" points="-4059.7,901.3 -4050.2,920.4 -4040.6,939.5 "/>
<polyline class="st0" points="-4050.2,996.8 -4040.6,1015.9 -4050.2,1035 -4059.7,1054.1 "/>
<path class="st2" d="M-4012,882.2l-9.6-19.1l-9.6-19.1l-9.6-19.1l-9.5,19.1l-9.6,19.1l-9.6-19.1l-9.6,19.1l-9.6-19.1l-9.6-19.1
	l-9.5,19.1l-9.6,19.1l-9.5,19.1l-9.5,19.1l9.5,19.1l9.5,19.1l9.6,19.1l9.5,19.1l9.6,19.1l9.6-19.1l9.6,19.1l9.6-19.1l9.6,19.1
	l9.5-19.1l9.6-19.1l9.6-19.1l9.6-19.1l9.6-19.1L-4012,882.2z M-4031.1,920.4l-9.6,19.1l-9.5,19.1l-9.6-19.1l-9.6,19.1l-9.6-19.1
	l-9.6,19.1l-9.6-19.1l-9.5-19.1l-9.6-19.1l9.6-19.1l9.5-19.1l9.6,19.1l9.6,19.1l9.6-19.1l9.6,19.1l9.6-19.1l9.5-19.1l9.6,19.1
	l9.6,19.1L-4031.1,920.4z"/>
<polyline class="st0" points="-4059.7,786.7 -4069.3,805.8 -4078.8,824.9 -4069.3,844 "/>
<polyline class="st0" points="-4078.8,901.3 -4069.3,920.4 -4059.7,939.5 "/>
<polyline class="st0" points="-4069.3,996.8 -4059.7,1015.9 -4069.3,1035 -4078.8,1054.1 "/>
<polyline class="st0" points="-4078.8,786.7 -4088.4,805.8 -4097.9,824.9 "/>
<polyline class="st0" points="-4088.4,882.2 -4097.9,901.3 -4088.4,920.4 -4078.8,939.5 "/>
<polyline class="st0" points="-4088.4,996.8 -4078.8,1015.9 -4088.4,1035 -4097.9,1054.1 "/>
<polyline class="st0" points="-4097.9,786.7 -4107.5,805.8 -4117,824.9 -4107.5,844 "/>
<polyline class="st0" points="-4107.5,958.6 -4117,977.7 -4107.5,996.8 -4097.9,1015.9 -4107.5,1035 -4117,1054.1 "/>
<polyline class="st0" points="-4117,786.7 -4126.6,805.8 -4136.1,824.9 -4126.6,844 -4117,863.1 "/>
<polyline class="st0" points="-4117,939.5 -4126.6,958.6 -4136.1,977.7 -4126.6,996.8 -4117,1015.9 -4126.6,1035 -4136.1,1054.1 "/>
<polyline class="st0" points="-4136.1,786.7 -4145.7,805.8 -4155.2,824.9 -4145.7,844 -4136.1,863.1 -4145.7,882.2 -4155.2,901.3 
	-4145.7,920.4 -4136.1,939.5 -4145.7,958.6 -4155.2,977.7 -4145.7,996.8 -4136.1,1015.9 -4145.7,1035 -4155.2,1054.1 "/>
<polyline class="st0" points="-4155.2,786.7 -4164.8,805.8 -4174.4,824.9 -4164.8,844 -4155.2,863.1 -4164.8,882.2 -4174.4,901.3 
	-4164.8,920.4 -4155.2,939.5 -4164.8,958.6 -4174.4,977.7 -4164.8,996.8 -4155.2,1015.9 -4164.8,1035 -4174.4,1054.1 "/>
<path class="st0" d="M-3784.2,891.7l-19.1-9.6l-19.1,9.6l19.1,9.5l15.3,7.6c6.4-4.8,14.3-7.6,22.9-7.6L-3784.2,891.7z
	 M-3726.9,920.4l4,2c1-2,2.2-4,3.6-5.8L-3726.9,920.4z M-3746,891.7l-19.1,9.5c8.6,0,16.5,2.8,22.9,7.6l15.3-7.6L-3746,891.7z
	 M-3731,922.4l4-2l-7.6-3.8C-3733.2,918.4-3732,920.4-3731,922.4z M-3765.1,920.4l-19.1-9.5l-3.8-1.9c6.4-4.8,14.3-7.6,22.9-7.6
	l-19.1-9.5l-19.1-9.6l-19.1,9.6l19.1,9.5l-15.3,7.6l-3.8,1.9l11.5,5.7c0,0,0,0,0,0c0.2,0.3,0.4,0.5,0.6,0.8c0.2,0.2,0.4,0.5,0.5,0.8
	c0.2,0.3,0.3,0.5,0.5,0.8c0.2,0.2,0.3,0.5,0.5,0.8c0.3,0.4,0.5,0.9,0.8,1.4c0.3,0.5,0.5,0.9,0.7,1.4c0.2,0.3,0.3,0.6,0.5,1
	c0.2,0.3,0.3,0.7,0.4,1c0.1,0.3,0.3,0.7,0.4,1c0.5,1.4,1,2.8,1.4,4.2c0.1,0.3,0.2,0.7,0.3,1c0.1,0.5,0.2,0.9,0.3,1.4
	c0.1,0.6,0.2,1.1,0.3,1.7c0,0.3,0.1,0.5,0.1,0.8c0.1,0.6,0.2,1.2,0.2,1.8c0,0.3,0,0.6,0.1,0.9v0.1c0,0.4,0,0.8,0.1,1.1
	c0,0.4,0,0.8,0,1.1v0l19.1,9.6l19.1-9.6l19.1-9.5L-3765.1,920.4z M-3879.7,786.7v267.4h267.4V786.7H-3879.7z M-3841.5,882.2
	l19.1-9.5l19.1,9.5l-19.1,9.6l19.1,9.5l-15.3,7.6l-3.8,1.9l-19.1-9.5l0,0l19.1-9.5L-3841.5,882.2z M-3669.6,910.9l-19.1,9.5
	l-19.1,9.5l19.1,9.5l-19.1,9.6l-15.1,7.5c-2.5-5-3.9-10.6-4-16.6c-0.1,6-1.5,11.6-4,16.6l-15.1-7.5l-19.1-9.6l19.1-9.5l-19.1-9.5
	l-19.1-9.5l-3.8-1.9c6.4-4.8,14.3-7.6,22.9-7.6c8.6,0,16.5,2.8,22.9,7.6c2.9,2.2,5.5,4.8,7.6,7.7c1.4,1.8,2.6,3.8,3.6,5.8l4-2l4,2
	c1-2,2.2-4,3.6-5.8c2.2-2.9,4.8-5.5,7.6-7.7c6.4-4.8,14.3-7.6,22.9-7.6c8.6,0,16.5,2.8,22.9,7.6L-3669.6,910.9z M-3726.9,939
	c0,0.2,0,0.3,0,0.5v0c0,0.2,0,0.3,0,0.5V939z M-3765.1,920.4l-19.1-9.5l-3.8-1.9c6.4-4.8,14.3-7.6,22.9-7.6l-19.1-9.5l-19.1-9.6
	l-19.1,9.6l19.1,9.5l-15.3,7.6l-3.8,1.9l11.5,5.7c0,0,0,0,0,0c0.2,0.3,0.4,0.5,0.6,0.8c0.2,0.2,0.4,0.5,0.5,0.8
	c0.2,0.3,0.3,0.5,0.5,0.8c0.2,0.2,0.3,0.5,0.5,0.8c0.3,0.4,0.5,0.9,0.8,1.4c0.3,0.5,0.5,0.9,0.7,1.4c0.2,0.3,0.3,0.6,0.5,1
	c0.2,0.3,0.3,0.7,0.4,1c0.1,0.3,0.3,0.7,0.4,1c0.5,1.4,1,2.8,1.4,4.2c0.1,0.3,0.2,0.7,0.3,1c0.1,0.5,0.2,0.9,0.3,1.4
	c0.1,0.6,0.2,1.1,0.3,1.7c0,0.3,0.1,0.5,0.1,0.8c0.1,0.6,0.2,1.2,0.2,1.8c0,0.3,0,0.6,0.1,0.9v0.1c0,0.4,0,0.8,0.1,1.1
	c0,0.4,0,0.8,0,1.1v0l19.1,9.6l19.1-9.6l19.1-9.5L-3765.1,920.4z"/>
<polyline class="st0" points="-3612.3,1035 -3650.5,1054.1 -3688.7,1035 -3726.9,1054.1 -3765.1,1035 -3803.3,1054.1 -3841.5,1035 
	-3879.7,1054.1 "/>
<polyline class="st0" points="-3879.7,1035 -3860.6,1025.5 -3841.5,1015.9 -3822.4,1025.5 -3803.3,1035 -3784.2,1025.5 
	-3765.1,1015.9 -3746,1025.5 -3726.9,1035 -3707.8,1025.5 -3688.7,1015.9 -3669.6,1025.5 -3650.5,1035 -3631.4,1025.5 
	-3612.3,1015.9 "/>
<polyline class="st0" points="-3879.7,1015.9 -3860.6,1006.4 -3841.5,996.8 -3822.4,1006.4 -3803.3,1015.9 -3784.2,1006.4 
	-3765.1,996.8 -3746,1006.4 -3726.9,1015.9 -3707.8,1006.4 -3688.7,996.8 -3669.6,1006.4 -3650.5,1015.9 -3631.4,1006.4 
	-3612.3,996.8 "/>
<polyline class="st0" points="-3612.3,977.7 -3631.4,987.3 -3650.5,996.8 -3669.6,987.3 -3688.7,977.7 -3707.8,987.3 -3726.9,996.8 
	-3746,987.3 -3765.1,977.7 -3784.2,987.3 -3803.3,996.8 -3822.4,987.3 -3841.5,977.7 -3860.6,987.3 -3879.7,996.8 "/>
<polyline class="st0" points="-3612.3,958.6 -3631.4,968.2 -3650.5,977.7 -3665.8,970.1 -3669.6,968.2 -3688.7,958.6 -3707.8,968.2 
	-3711.7,970.1 -3726.9,977.7 -3742.2,970.1 -3746,968.2 -3765.1,958.6 -3784.2,968.2 -3788.1,970.1 -3803.3,977.7 -3818.6,970.1 
	-3822.4,968.2 -3841.5,958.6 -3860.6,968.2 -3864.5,970.1 -3879.7,977.7 "/>
<polyline class="st0" points="-3612.3,939.5 -3631.4,949.1 -3650.5,958.6 -3654.6,956.6 -3669.6,949.1 -3688.7,939.5 "/>
<polyline class="st0" points="-3722.9,956.6 -3726.9,958.6 -3731,956.6 "/>
<polyline class="st0" points="-3765.1,939.5 -3784.2,949.1 -3799.3,956.6 -3803.3,958.6 -3807.4,956.6 -3822.4,949.1 -3841.5,939.5 
	-3860.6,949.1 -3875.7,956.6 -3879.7,958.6 "/>
<polyline class="st0" points="-3879.7,939.5 -3860.6,930 -3841.5,920.4 -3822.4,930 -3803.3,939.5 -3784.2,930 -3765.1,920.4 "/>
<line class="st0" x1="-3726.9" y1="939.5" x2="-3726.9" y2="939.5"/>
<polyline class="st0" points="-3612.3,920.4 -3631.4,930 -3650.5,939.5 -3669.6,930 -3688.7,920.4 "/>
<polyline class="st0" points="-3879.7,920.4 -3860.6,910.9 -3841.5,901.3 "/>
<polyline class="st0" points="-3669.6,910.9 -3658.2,916.6 -3650.5,920.4 -3631.4,910.9 -3612.3,901.3 "/>
<polyline class="st0" points="-3719.3,916.6 -3726.9,920.4 -3734.6,916.6 "/>
<polyline class="st0" points="-3784.2,910.9 -3795.7,916.6 -3803.3,920.4 -3811,916.6 -3822.4,910.9 "/>
<polyline class="st0" points="-3841.5,882.2 -3860.6,891.7 -3879.7,901.3 "/>
<polyline class="st0" points="-3803.3,901.3 -3784.2,891.7 -3765.1,882.2 -3746,891.7 -3726.9,901.3 -3707.8,891.7 -3688.7,882.2 
	-3669.6,891.7 -3650.5,901.3 -3631.4,891.7 -3612.3,882.2 "/>
<polyline class="st0" points="-3879.7,882.2 -3860.6,872.6 -3841.5,863.1 -3822.4,872.6 "/>
<polyline class="st0" points="-3803.3,882.2 -3784.2,872.6 -3765.1,863.1 -3746,872.6 -3726.9,882.2 -3707.8,872.6 -3688.7,863.1 
	-3669.6,872.6 -3650.5,882.2 -3631.4,872.6 -3612.3,863.1 "/>
<polyline class="st0" points="-3612.3,844 -3631.4,853.5 -3650.5,863.1 -3669.6,853.5 -3688.7,844 -3707.8,853.5 -3726.9,863.1 
	-3746,853.5 -3765.1,844 -3784.2,853.5 -3803.3,863.1 -3822.4,853.5 -3841.5,844 -3860.6,853.5 -3879.7,863.1 "/>
<polyline class="st0" points="-3612.3,824.9 -3650.5,844 -3688.7,824.9 -3726.9,844 -3765.1,824.9 -3803.3,844 -3841.5,824.9 
	-3879.7,844 "/>
<polyline class="st0" points="-3612.3,805.8 -3650.5,824.9 -3688.7,805.8 -3726.9,824.9 -3765.1,805.8 -3803.3,824.9 -3841.5,805.8 
	-3879.7,824.9 "/>
<polyline class="st0" points="-3612.3,786.7 -3650.5,805.8 -3688.7,786.7 -3726.9,805.8 -3765.1,786.7 -3803.3,805.8 -3841.5,786.7 
	-3879.7,805.8 "/>
<polyline class="st0" points="-3879.7,1035 -3841.5,1054.1 -3803.3,1035 -3765.1,1054.1 -3726.9,1035 -3688.7,1054.1 -3650.5,1035 
	-3612.3,1054.1 "/>
<polyline class="st0" points="-3879.7,1015.9 -3841.5,1035 -3803.3,1015.9 -3765.1,1035 -3726.9,1015.9 -3688.7,1035 
	-3650.5,1015.9 -3612.3,1035 "/>
<polyline class="st0" points="-3612.3,1015.9 -3631.4,1006.4 -3650.5,996.8 -3669.6,1006.4 -3688.7,1015.9 -3707.8,1006.4 
	-3726.9,996.8 -3746,1006.4 -3765.1,1015.9 -3784.2,1006.4 -3803.3,996.8 -3822.4,1006.4 -3841.5,1015.9 -3860.6,1006.4 
	-3879.7,996.8 "/>
<polyline class="st0" points="-3612.3,996.8 -3631.4,987.3 -3650.5,977.7 -3669.6,987.3 -3688.7,996.8 -3707.8,987.3 -3726.9,977.7 
	-3746,987.3 -3765.1,996.8 -3784.2,987.3 -3803.3,977.7 -3822.4,987.3 -3841.5,996.8 -3860.6,987.3 -3879.7,977.7 "/>
<path class="st0" d="M-3879.7,958.6l7.6,3.8c0,0,0,0,0,0l11.5,5.7l19.1,9.6l19.1-9.6l11.5-5.7c0,0,0,0,0,0l7.6-3.8l7.7,3.8l11.4,5.7
	l19.1,9.6l19.1-9.6l11.5-5.7l7.6-3.8l7.6,3.8l11.5,5.7l19.1,9.6l19.1-9.6l11.5-5.7l7.6-3.8l19.1,9.5l19.1,9.6"/>
<polyline class="st0" points="-3879.7,939.5 -3860.6,949.1 -3841.5,958.6 -3822.4,949.1 -3803.3,939.5 -3784.2,949.1 -3765.1,958.6 
	-3746,949.1 "/>
<line class="st0" x1="-3726.9" y1="939.5" x2="-3726.9" y2="939.5"/>
<polyline class="st0" points="-3707.8,949.1 -3688.7,958.6 -3669.6,949.1 -3650.5,939.5 -3631.4,949.1 -3612.3,958.6 "/>
<polyline class="st0" points="-3688.7,939.5 -3669.6,930 -3654.6,922.4 -3650.5,920.4 -3631.4,930 -3612.3,939.5 "/>
<polyline class="st0" points="-3879.7,920.4 -3875.7,922.4 -3860.6,930 -3841.5,939.5 -3822.4,930 -3807.4,922.4 -3803.3,920.4 
	-3799.3,922.4 -3784.2,930 -3765.1,939.5 "/>
<line class="st0" x1="-3788.1" y1="908.9" x2="-3803.3" y2="901.3"/>
<polyline class="st0" points="-3742.2,908.9 -3726.9,901.3 -3711.7,908.9 "/>
<polyline class="st0" points="-3612.3,920.4 -3631.4,910.9 -3650.5,901.3 -3665.8,908.9 "/>
<polyline class="st0" points="-3822.4,910.9 -3841.5,920.4 -3860.6,910.9 -3879.7,901.3 "/>
<polyline class="st0" points="-3612.3,901.3 -3631.4,891.7 -3650.5,882.2 -3669.6,891.7 -3688.7,901.3 -3707.8,891.7 -3726.9,882.2 
	-3746,891.7 -3765.1,901.3 -3784.2,891.7 -3803.3,882.2 "/>
<polyline class="st0" points="-3879.7,882.2 -3860.6,891.7 -3841.5,901.3 "/>
<polyline class="st0" points="-3612.3,882.2 -3631.4,872.6 -3650.5,863.1 -3669.6,872.6 -3688.7,882.2 -3707.8,872.6 -3726.9,863.1 
	-3746,872.6 -3765.1,882.2 -3784.2,872.6 -3803.3,863.1 -3822.4,872.6 "/>
<polyline class="st0" points="-3841.5,882.2 -3860.6,872.6 -3879.7,863.1 "/>
<polyline class="st0" points="-3879.7,844 -3841.5,863.1 -3803.3,844 -3765.1,863.1 -3726.9,844 -3688.7,863.1 -3650.5,844 
	-3612.3,863.1 "/>
<polyline class="st0" points="-3879.7,824.9 -3841.5,844 -3803.3,824.9 -3765.1,844 -3726.9,824.9 -3688.7,844 -3650.5,824.9 
	-3612.3,844 "/>
<polyline class="st0" points="-3879.7,805.8 -3841.5,824.9 -3803.3,805.8 -3765.1,824.9 -3726.9,805.8 -3688.7,824.9 -3650.5,805.8 
	-3612.3,824.9 "/>
<polyline class="st0" points="-3879.7,786.7 -3841.5,805.8 -3803.3,786.7 -3765.1,805.8 -3726.9,786.7 -3688.7,805.8 -3650.5,786.7 
	-3612.3,805.8 "/>
<rect x="-4469" y="786.7" class="st0" width="267.4" height="267.4"/>
<polyline class="st0" points="-4469,824.9 -4430.8,786.7 -4392.6,824.9 -4354.4,786.7 -4316.2,824.9 -4278,786.7 -4239.8,824.9 
	-4201.5,786.7 "/>
<polyline class="st0" points="-4469,863.1 -4430.8,824.9 -4392.6,863.1 -4354.4,824.9 -4316.2,863.1 -4278,824.9 -4239.8,863.1 
	-4201.5,824.9 "/>
<polyline class="st0" points="-4469,901.3 -4430.8,863.1 -4392.6,901.3 -4354.4,863.1 -4316.2,901.3 -4278,863.1 -4239.8,901.3 
	-4201.5,863.1 "/>
<polyline class="st0" points="-4469,939.5 -4430.8,901.3 -4392.6,939.5 -4354.4,901.3 -4316.2,939.5 -4278,901.3 -4239.8,939.5 
	-4201.5,901.3 "/>
<polyline class="st0" points="-4469,977.7 -4430.8,939.5 -4392.6,977.7 -4354.4,939.5 -4316.2,977.7 -4278,939.5 -4239.8,977.7 
	-4201.5,939.5 "/>
<polyline class="st0" points="-4469,1015.9 -4430.8,977.7 -4392.6,1015.9 -4354.4,977.7 -4316.2,1015.9 -4278,977.7 -4239.8,1015.9 
	-4201.5,977.7 "/>
<polyline class="st0" points="-4469,1054.1 -4430.8,1015.9 -4392.6,1054.1 -4354.4,1015.9 -4316.2,1054.1 -4278,1015.9 
	-4239.8,1054.1 -4201.5,1015.9 "/>
<polyline class="st0" points="-4201.5,824.9 -4239.8,786.7 -4278,824.9 -4316.2,786.7 -4354.4,824.9 -4392.6,786.7 -4430.8,824.9 
	-4469,786.7 "/>
<polyline class="st0" points="-4201.5,863.1 -4239.8,824.9 -4278,863.1 -4316.2,824.9 -4354.4,863.1 -4392.6,824.9 -4430.8,863.1 
	-4469,824.9 "/>
<polyline class="st0" points="-4201.5,901.3 -4239.8,863.1 -4278,901.3 -4316.2,863.1 -4354.4,901.3 -4392.6,863.1 -4430.8,901.3 
	-4469,863.1 "/>
<polyline class="st0" points="-4201.5,939.5 -4239.8,901.3 -4278,939.5 -4316.2,901.3 -4354.4,939.5 -4392.6,901.3 -4430.8,939.5 
	-4469,901.3 "/>
<polyline class="st0" points="-4201.5,977.7 -4239.8,939.5 -4278,977.7 -4316.2,939.5 -4354.4,977.7 -4392.6,939.5 -4430.8,977.7 
	-4469,939.5 "/>
<polyline class="st0" points="-4201.5,1015.9 -4239.8,977.7 -4278,1015.9 -4316.2,977.7 -4354.4,1015.9 -4392.6,977.7 
	-4430.8,1015.9 -4469,977.7 "/>
<polyline class="st0" points="-4201.5,1054.1 -4239.8,1015.9 -4278,1054.1 -4316.2,1015.9 -4354.4,1054.1 -4392.6,1015.9 
	-4430.8,1054.1 -4469,1015.9 "/>
<g>
	<path class="st3" d="M-4372.9,468.3l-0.8,2.5h-1.1l2.7-8.1h1.3l2.8,8.1h-1.1l-0.9-2.5H-4372.9z M-4370.3,467.4l-0.8-2.3
		c-0.2-0.5-0.3-1-0.4-1.5h0c-0.1,0.5-0.3,1-0.4,1.5l-0.8,2.3H-4370.3z M-4369.7,460.9l-1.5,1.4h-0.9l1.1-1.4H-4369.7z"/>
	<path class="st3" d="M-4366.9,470.8v-8.1h1.1l2.6,4.1c0.6,0.9,1.1,1.8,1.5,2.6l0,0c-0.1-1.1-0.1-2.1-0.1-3.3v-3.4h1v8.1h-1.1
		l-2.6-4.1c-0.6-0.9-1.1-1.8-1.5-2.7l0,0c0.1,1,0.1,2,0.1,3.3v3.5H-4366.9z"/>
	<path class="st3" d="M-4352.8,470.4c-0.5,0.2-1.4,0.4-2.5,0.4c-1.2,0-2.2-0.3-3-1.1c-0.7-0.7-1.1-1.8-1.1-3c0-2.4,1.7-4.2,4.4-4.2
		c0.9,0,1.7,0.2,2,0.4l-0.3,0.9c-0.4-0.2-1-0.3-1.8-0.3c-2,0-3.2,1.2-3.2,3.2c0,2.1,1.2,3.3,3.1,3.3c0.7,0,1.2-0.1,1.4-0.2v-2.4
		h-1.6v-0.8h2.7V470.4z"/>
	<path class="st3" d="M-4350.2,462.7v4.8c0,1.8,0.8,2.6,1.9,2.6c1.2,0,2-0.8,2-2.6v-4.8h1.1v4.7c0,2.5-1.3,3.5-3.1,3.5
		c-1.7,0-2.9-0.9-2.9-3.5v-4.8H-4350.2z"/>
	<polygon class="st3" points="-4343.5,462.7 -4342.4,462.7 -4342.4,469.9 -4339,469.9 -4339,470.8 -4343.5,470.8 	"/>
	<path class="st3" d="M-4331.4,466.7c0,2.8-1.7,4.3-3.8,4.3c-2.1,0-3.6-1.7-3.6-4.1c0-2.6,1.6-4.2,3.8-4.2
		C-4332.8,462.6-4331.4,464.3-4331.4,466.7 M-4337.6,466.8c0,1.7,0.9,3.3,2.6,3.3c1.7,0,2.6-1.5,2.6-3.4c0-1.6-0.8-3.3-2.6-3.3
		C-4336.8,463.4-4337.6,465-4337.6,466.8"/>
	<path class="st3" d="M-4327.5,462.8c0.6-0.1,1.4-0.2,2.2-0.2c1.5,0,2.6,0.3,3.3,1c0.7,0.7,1.1,1.6,1.1,2.9c0,1.3-0.4,2.4-1.2,3.1
		c-0.8,0.8-2,1.2-3.6,1.2c-0.7,0-1.4,0-1.9-0.1V462.8z M-4326.4,470c0.3,0,0.6,0.1,1.1,0.1c2.2,0,3.4-1.2,3.4-3.4
		c0-1.9-1.1-3.1-3.3-3.1c-0.5,0-0.9,0-1.2,0.1V470z"/>
	<polygon class="st3" points="-4315.3,467 -4318.4,467 -4318.4,469.9 -4314.9,469.9 -4314.9,470.8 -4319.5,470.8 -4319.5,462.7 
		-4315.1,462.7 -4315.1,463.6 -4318.4,463.6 -4318.4,466.2 -4315.3,466.2 	"/>
	<path class="st3" d="M-4308.1,470.8v-2.1h-3.6V468l3.5-5h1.1v4.8h1.1v0.8h-1.1v2.1H-4308.1z M-4308.1,467.9v-2.6c0-0.4,0-0.8,0-1.2
		h0c-0.2,0.5-0.4,0.8-0.6,1.2l-1.9,2.7v0H-4308.1z"/>
	<path class="st3" d="M-4300.6,463.9h-3l-0.3,2c0.2,0,0.3,0,0.6,0c0.6,0,1.2,0.1,1.7,0.4c0.6,0.3,1.1,1,1.1,2c0,1.5-1.2,2.7-2.9,2.7
		c-0.9,0-1.6-0.2-1.9-0.5l0.3-0.8c0.3,0.2,1,0.4,1.7,0.4c1,0,1.8-0.6,1.8-1.7c0-1-0.7-1.7-2.2-1.7c-0.4,0-0.8,0-1.1,0.1l0.5-3.7h3.7
		V463.9z"/>
	<path class="st3" d="M-4295.6,465.7c0,1.4-1,2-1.9,2c-1.1,0-1.9-0.8-1.9-1.9c0-1.2,0.9-2,1.9-2
		C-4296.3,463.7-4295.6,464.5-4295.6,465.7 M-4298.6,465.7c0,0.8,0.5,1.4,1.1,1.4c0.6,0,1.1-0.6,1.1-1.4c0-0.6-0.3-1.4-1.1-1.4
		C-4298.3,464.3-4298.6,465.1-4298.6,465.7"/>
	<path class="st3" d="M-4078.3,468.3l-0.8,2.5h-1.1l2.7-8.1h1.3l2.8,8.1h-1.1l-0.9-2.5H-4078.3z M-4075.7,467.4l-0.8-2.3
		c-0.2-0.5-0.3-1-0.4-1.5h0c-0.1,0.5-0.3,1-0.4,1.5l-0.8,2.3H-4075.7z M-4075.1,460.9l-1.5,1.4h-0.9l1.1-1.4H-4075.1z"/>
	<path class="st3" d="M-4072.3,470.8v-8.1h1.1l2.6,4.1c0.6,0.9,1.1,1.8,1.5,2.6l0,0c-0.1-1.1-0.1-2.1-0.1-3.3v-3.4h1v8.1h-1.1
		l-2.6-4.1c-0.6-0.9-1.1-1.8-1.5-2.7l0,0c0.1,1,0.1,2,0.1,3.3v3.5H-4072.3z"/>
	<path class="st3" d="M-4058.2,470.4c-0.5,0.2-1.4,0.4-2.5,0.4c-1.2,0-2.2-0.3-3-1.1c-0.7-0.7-1.1-1.8-1.1-3c0-2.4,1.7-4.2,4.4-4.2
		c0.9,0,1.7,0.2,2,0.4l-0.3,0.9c-0.4-0.2-1-0.3-1.8-0.3c-2,0-3.2,1.2-3.2,3.2c0,2.1,1.2,3.3,3.1,3.3c0.7,0,1.2-0.1,1.4-0.2v-2.4
		h-1.6v-0.8h2.7V470.4z"/>
	<path class="st3" d="M-4055.6,462.7v4.8c0,1.8,0.8,2.6,1.9,2.6c1.2,0,2-0.8,2-2.6v-4.8h1.1v4.7c0,2.5-1.3,3.5-3.1,3.5
		c-1.7,0-2.9-0.9-2.9-3.5v-4.8H-4055.6z"/>
	<polygon class="st3" points="-4048.9,462.7 -4047.8,462.7 -4047.8,469.9 -4044.4,469.9 -4044.4,470.8 -4048.9,470.8 	"/>
	<path class="st3" d="M-4036.8,466.7c0,2.8-1.7,4.3-3.8,4.3c-2.1,0-3.6-1.7-3.6-4.1c0-2.6,1.6-4.2,3.8-4.2
		C-4038.2,462.6-4036.8,464.3-4036.8,466.7 M-4043,466.8c0,1.7,0.9,3.3,2.6,3.3c1.7,0,2.6-1.5,2.6-3.4c0-1.6-0.8-3.3-2.6-3.3
		C-4042.2,463.4-4043,465-4043,466.8"/>
	<path class="st3" d="M-4032.9,462.8c0.6-0.1,1.4-0.2,2.2-0.2c1.5,0,2.6,0.3,3.3,1c0.7,0.7,1.1,1.6,1.1,2.9c0,1.3-0.4,2.4-1.2,3.1
		c-0.8,0.8-2,1.2-3.6,1.2c-0.7,0-1.4,0-1.9-0.1V462.8z M-4031.8,470c0.3,0,0.6,0.1,1.1,0.1c2.2,0,3.4-1.2,3.4-3.4
		c0-1.9-1.1-3.1-3.3-3.1c-0.5,0-0.9,0-1.2,0.1V470z"/>
	<polygon class="st3" points="-4020.7,467 -4023.8,467 -4023.8,469.9 -4020.3,469.9 -4020.3,470.8 -4024.9,470.8 -4024.9,462.7 
		-4020.5,462.7 -4020.5,463.6 -4023.8,463.6 -4023.8,466.2 -4020.7,466.2 	"/>
	<path class="st3" d="M-4012.3,463.8c-0.2,0-0.5,0-0.8,0c-1.7,0.3-2.5,1.5-2.7,2.8h0c0.4-0.5,1-0.9,1.9-0.9c1.4,0,2.4,1,2.4,2.5
		c0,1.4-1,2.7-2.6,2.7c-1.7,0-2.8-1.3-2.8-3.3c0-1.5,0.6-2.7,1.3-3.5c0.6-0.6,1.5-1,2.5-1.2c0.3,0,0.6-0.1,0.8-0.1V463.8z
		 M-4012.6,468.2c0-1.1-0.6-1.8-1.6-1.8c-0.6,0-1.2,0.4-1.5,1c-0.1,0.1-0.1,0.3-0.1,0.5c0,1.3,0.6,2.2,1.7,2.2
		C-4013.3,470.1-4012.6,469.4-4012.6,468.2"/>
	<path class="st3" d="M-4005.5,466.8c0,2.6-1,4.1-2.7,4.1c-1.5,0-2.6-1.4-2.6-4c0-2.6,1.1-4.1,2.7-4.1
		C-4006.4,462.9-4005.5,464.3-4005.5,466.8 M-4009.7,466.9c0,2,0.6,3.2,1.6,3.2c1.1,0,1.6-1.3,1.6-3.2c0-1.9-0.5-3.2-1.6-3.2
		C-4009,463.7-4009.7,464.8-4009.7,466.9"/>
	<path class="st3" d="M-4001,465.7c0,1.4-1,2-1.9,2c-1.1,0-1.9-0.8-1.9-1.9c0-1.2,0.9-2,1.9-2C-4001.7,463.7-4001,464.5-4001,465.7
		 M-4004,465.7c0,0.8,0.5,1.4,1.1,1.4c0.6,0,1.1-0.6,1.1-1.4c0-0.6-0.3-1.4-1.1-1.4C-4003.7,464.3-4004,465.1-4004,465.7"/>
	<path class="st3" d="M-3783.7,468.3l-0.8,2.5h-1.1l2.7-8.1h1.3l2.8,8.1h-1.1l-0.9-2.5H-3783.7z M-3781.1,467.4l-0.8-2.3
		c-0.2-0.5-0.3-1-0.4-1.5h0c-0.1,0.5-0.3,1-0.4,1.5l-0.8,2.3H-3781.1z M-3780.5,460.9l-1.5,1.4h-0.9l1.1-1.4H-3780.5z"/>
	<path class="st3" d="M-3777.7,470.8v-8.1h1.1l2.6,4.1c0.6,0.9,1.1,1.8,1.5,2.6l0,0c-0.1-1.1-0.1-2.1-0.1-3.3v-3.4h1v8.1h-1.1
		l-2.6-4.1c-0.6-0.9-1.1-1.8-1.5-2.7l0,0c0.1,1,0.1,2,0.1,3.3v3.5H-3777.7z"/>
	<path class="st3" d="M-3763.6,470.4c-0.5,0.2-1.4,0.4-2.5,0.4c-1.2,0-2.2-0.3-3-1.1c-0.7-0.7-1.1-1.8-1.1-3c0-2.4,1.7-4.2,4.4-4.2
		c0.9,0,1.7,0.2,2,0.4l-0.3,0.9c-0.4-0.2-1-0.3-1.8-0.3c-2,0-3.2,1.2-3.2,3.2c0,2.1,1.2,3.3,3.1,3.3c0.7,0,1.2-0.1,1.4-0.2v-2.4
		h-1.6v-0.8h2.7V470.4z"/>
	<path class="st3" d="M-3761,462.7v4.8c0,1.8,0.8,2.6,1.9,2.6c1.2,0,2-0.8,2-2.6v-4.8h1.1v4.7c0,2.5-1.3,3.5-3.1,3.5
		c-1.7,0-2.9-0.9-2.9-3.5v-4.8H-3761z"/>
	<polygon class="st3" points="-3754.3,462.7 -3753.2,462.7 -3753.2,469.9 -3749.8,469.9 -3749.8,470.8 -3754.3,470.8 	"/>
	<path class="st3" d="M-3742.2,466.7c0,2.8-1.7,4.3-3.8,4.3c-2.1,0-3.6-1.7-3.6-4.1c0-2.6,1.6-4.2,3.8-4.2
		C-3743.6,462.6-3742.2,464.3-3742.2,466.7 M-3748.4,466.8c0,1.7,0.9,3.3,2.6,3.3c1.7,0,2.6-1.5,2.6-3.4c0-1.6-0.8-3.3-2.6-3.3
		C-3747.6,463.4-3748.4,465-3748.4,466.8"/>
	<path class="st3" d="M-3738.2,462.8c0.6-0.1,1.4-0.2,2.2-0.2c1.5,0,2.6,0.3,3.3,1c0.7,0.7,1.1,1.6,1.1,2.9c0,1.3-0.4,2.4-1.2,3.1
		c-0.8,0.8-2,1.2-3.6,1.2c-0.7,0-1.4,0-1.9-0.1V462.8z M-3737.2,470c0.3,0,0.6,0.1,1.1,0.1c2.2,0,3.4-1.2,3.4-3.4
		c0-1.9-1.1-3.1-3.3-3.1c-0.5,0-0.9,0-1.2,0.1V470z"/>
	<polygon class="st3" points="-3726.1,467 -3729.2,467 -3729.2,469.9 -3725.7,469.9 -3725.7,470.8 -3730.3,470.8 -3730.3,462.7 
		-3725.9,462.7 -3725.9,463.6 -3729.2,463.6 -3729.2,466.2 -3726.1,466.2 	"/>
	<path class="st3" d="M-3721.9,469.6c0.3,0.2,1,0.5,1.7,0.5c1.4,0,1.8-0.9,1.8-1.5c0-1.1-1-1.6-2-1.6h-0.6v-0.8h0.6
		c0.8,0,1.7-0.4,1.7-1.3c0-0.6-0.4-1.2-1.4-1.2c-0.6,0-1.2,0.3-1.6,0.5l-0.3-0.8c0.4-0.3,1.2-0.6,2-0.6c1.5,0,2.2,0.9,2.2,1.9
		c0,0.8-0.5,1.5-1.4,1.8v0c1,0.2,1.7,0.9,1.7,2c0,1.2-1,2.3-2.8,2.3c-0.9,0-1.6-0.3-2-0.5L-3721.9,469.6z"/>
	<path class="st3" d="M-3710.8,466.8c0,2.6-1,4.1-2.7,4.1c-1.5,0-2.6-1.4-2.6-4c0-2.6,1.1-4.1,2.7-4.1
		C-3711.8,462.9-3710.8,464.3-3710.8,466.8 M-3715.1,466.9c0,2,0.6,3.2,1.6,3.2c1.1,0,1.6-1.3,1.6-3.2c0-1.9-0.5-3.2-1.6-3.2
		C-3714.4,463.7-3715.1,464.8-3715.1,466.9"/>
	<path class="st3" d="M-3706.4,465.7c0,1.4-1,2-1.9,2c-1.1,0-1.9-0.8-1.9-1.9c0-1.2,0.9-2,1.9-2
		C-3707.1,463.7-3706.4,464.5-3706.4,465.7 M-3709.4,465.7c0,0.8,0.5,1.4,1.1,1.4c0.6,0,1.1-0.6,1.1-1.4c0-0.6-0.3-1.4-1.1-1.4
		C-3709.1,464.3-3709.4,465.1-3709.4,465.7"/>
</g>
<text transform="matrix(1 0 0 1 -4263.0972 35.7419)" style="font-family:'MyriadPro-Regular'; font-size:72px;">L L</text>
<polygon class="st4" points="-1399.5,620.5 -1610.7,986.3 -1188.2,986.3 "/>
<g>
	<path class="st5" d="M-2550.1,423.3c0-13.4-0.9-26.6-2.6-39.6c-1.8-13.9-4.6-27.6-8.2-40.8c-2.2-8.1-4.8-16-7.6-23.8
		c-5.9-16-13-31.4-21.4-46c-8.4,14.6-15.6,30-21.4,46.1c-2.9,7.8-5.4,15.7-7.6,23.8c-3.6,13.3-6.4,26.9-8.2,40.8
		c-1.7,13-2.6,26.2-2.6,39.6c0,0.3,0,0.6,0,0.9h0c13-2,26.2-3,39.8-3c0,0.7,0,1.4,0,2.1c0-0.7,0-1.4,0-2.1c13.5,0,26.8,1,39.8,3h0
		C-2550.1,423.9-2550.1,423.6-2550.1,423.3z M-2546.2,465.3c-2.2-0.4-4.4-0.8-6.6-1.2c-11.2-1.9-22.7-2.9-34.4-3c-0.9,0-1.8,0-2.7,0
		s-1.8,0-2.7,0c-11.7,0.1-23.2,1.2-34.4,3c-2.2,0.4-4.4,0.8-6.6,1.2c-11,2.2-21.7,5.2-32.1,8.9c-2-13.3-3.2-27-3.6-40.8
		c-0.1-3.4-0.2-6.7-0.2-10.1c0-10.7,0.5-21.3,1.4-31.7c1.3-14.4,3.5-28.6,6.6-42.5c2.1-9.3,4.5-18.6,7.3-27.6
		c5-16.1,11.2-31.8,18.4-46.8c6.3-13.2,13.5-25.9,21.4-38.1c9,11.5,17.1,23.6,24.4,36.4c7.3-12.7,15.4-24.9,24.4-36.4
		c-7.5-11.5-15.6-22.6-24.4-33.1c-62.9-75.5-157.7-123.5-263.6-123.5c-189.5,0-343.2,153.6-343.2,343.2
		c0,165,116.4,302.8,271.6,335.7c13.9,3,28.1,5,42.5,6.3c9.6,0.8,19.2,1.2,29,1.2c4.3,0,8.6-0.1,12.8-0.2
		c13.8-0.5,27.4-1.8,40.8-3.9c13.4-2.1,26.5-5,39.3-8.6c67.7-19,126.9-58.2,170.7-110.7c8.8-10.5,16.9-21.6,24.4-33.1
		c7.9-12.2,15.1-24.9,21.4-38.1c7.2-15,13.4-30.7,18.4-46.8c1.2-3.8,2.3-7.6,3.4-11.5c3.5-12.9,6.3-26,8.2-39.4
		C-2524.4,470.4-2535.2,467.4-2546.2,465.3z"/>
	<path class="st5" d="M-2552.8,464c-1.8,13.3-4.4,26.3-7.9,39c-2.2,8.3-4.8,16.4-7.8,24.4c-5.9,16-13,31.4-21.4,46.1
		c-7.3,12.7-15.4,24.9-24.4,36.4c-39.3,50.3-94,87.8-157.1,105.5c-12.7,3.6-25.7,6.3-38.9,8.2c-13,1.9-26.3,2.9-39.8,3
		c-1.1,0-2.2,0-3.3,0c-12.6,0-25-0.8-37.2-2.3c-13.9-1.7-27.6-4.3-40.9-7.9c-129.7-34.5-225.3-152.7-225.3-293.2
		c0-167.5,135.8-303.4,303.4-303.4c97.2,0,183.7,45.7,239.2,116.8c-7.9,12.2-15.1,24.9-21.4,38.1c-7.2,15-13.4,30.6-18.4,46.8
		c-2.8,9-5.3,18.3-7.3,27.6c-3.1,13.9-5.3,28-6.6,42.5c-1,10.4-1.4,21-1.4,31.7c0,3.4,0.1,6.7,0.2,10.1c0.4,13.8,1.6,27.4,3.6,40.8
		c10.4-3.7,21.1-6.7,32.1-8.9c2.2-0.4,4.4-0.8,6.6-1.2c11.2-1.9,22.7-2.9,34.4-3c0.9,0,1.8,0,2.7,0s1.8,0,2.7,0
		C-2575.5,461.1-2564,462.2-2552.8,464z"/>
	<path class="st5" d="M-2550.1,423.3v0.9c-13-2-26.2-3-39.8-3c0,0.7,0,1.4,0,2.1c0-0.7,0-1.4,0-2.1c-13.5,0-26.8,1-39.8,3h0
		c0-0.3,0-0.6,0-0.9c0-13.4,0.9-26.6,2.6-39.6c1.8-13.9,4.6-27.6,8.2-40.8c2.2-8.1,4.8-16,7.6-23.8c5.9-16,13-31.4,21.4-46.1
		c8.4,14.6,15.5,30,21.4,46c2.9,7.8,5.4,15.7,7.6,23.8c3.6,13.3,6.4,26.9,8.2,40.8C-2551,396.7-2550.1,409.9-2550.1,423.3z"/>
	<path class="st5" d="M-2592.6,461c-2,13.8-5,27.2-9,40.1c-2.8,9-6,17.8-9.7,26.4c-6.7,15.6-14.9,30.5-24.4,44.3
		c-32.9,48.1-81.3,84.8-138,102.8c-12.9,4.1-26.3,7.2-40,9.3c-13,2-26.3,3-39.8,3h0c-13.5,0-26.8-1-39.8-3
		c-13.6-2.1-26.8-5.2-39.6-9.2c-106.8-33.7-184.2-133.5-184.2-251.4c0-145.6,118-263.6,263.6-263.6c90.5,0,170.3,45.6,217.8,115.1
		c-7.2,15-13.4,30.6-18.4,46.8c-2.8,9-5.3,18.3-7.3,27.6c-3.1,13.9-5.3,28-6.6,42.5c-1,10.4-1.4,21-1.4,31.7c0,3.4,0.1,6.7,0.2,10.1
		c0.4,13.8,1.6,27.4,3.6,40.8c10.4-3.7,21.1-6.7,32.1-8.9c2.2-0.4,4.4-0.8,6.6-1.2C-2615.7,462.2-2604.3,461.1-2592.6,461z"/>
	<path class="st5" d="M-2589.9,421.2c-13.5,0-26.8,1-39.8,3h0c0-0.3,0-0.6,0-0.9c0-13.4,0.9-26.6,2.6-39.6
		c1.8-13.9,4.6-27.6,8.2-40.8c2.2-8.1,4.8-16,7.6-23.8c3.2,7.4,6.1,15,8.6,22.8c4.1,12.8,7.3,26,9.5,39.6
		C-2591.1,394.4-2590,407.7-2589.9,421.2z"/>
	<path class="st5" d="M-2633.6,465.3c-2.9,15.5-7.5,30.4-13.4,44.5c-2.2,5.2-4.5,10.3-7.1,15.3c-23.7,46.4-63.2,83.4-111.3,104
		c-14.1,6.1-29,10.7-44.4,13.8c-13.3,2.6-27,4.1-41,4.2c-0.9,0-1.8,0-2.7,0c-12.6,0-25-1-37-3c-13.4-2.2-26.3-5.6-38.8-10.1
		c-86.3-31-148-113.6-148-210.7c0-123.6,100.2-223.8,223.8-223.8c87,0,162.4,49.6,199.4,122.1c-2.8,9-5.3,18.3-7.3,27.6
		c-3.1,13.9-5.3,28-6.6,42.5c-1,10.4-1.4,21-1.4,31.7c0,3.4,0.1,6.7,0.2,10.1c0.4,13.8,1.6,27.4,3.6,40.8
		C-2655.3,470.4-2644.6,467.4-2633.6,465.3z"/>
	<circle class="st5" cx="-2853.5" cy="423.3" r="184.1"/>
</g>
<g>
	<path class="st5" d="M-2550.1,424.2L-2550.1,424.2c-13-2-26.3-3-39.8-3c0,0.7,0,1.4,0,2.1c0-0.7,0-1.4,0-2.1c-13.5,0-26.8,1-39.8,3
		h0c0-0.3,0-0.6,0-0.9c0-13.4,0.9-26.6,2.6-39.6c1.8-13.9,4.6-27.6,8.2-40.8c5.4-0.4,10.8-0.8,16.2-1c4.2-0.2,8.5-0.2,12.8-0.2
		c4.3,0,8.6,0.1,12.8,0.2c5.4,0.2,10.8,0.5,16.2,1c3.6,13.3,6.4,26.9,8.2,40.8c1.7,13,2.6,26.2,2.6,39.6
		C-2550.1,423.6-2550.1,423.9-2550.1,424.2z"/>
	<path class="st5" d="M-2246.7,684.8c0,10.7-0.5,21.3-1.4,31.7c-1.3,14.4-3.5,28.6-6.6,42.5c-33.9,153.9-171.1,269-335.1,269
		c-164.1,0-301.2-115.1-335.1-269c-3.1-13.9-5.3-28-6.6-42.5c-1-10.4-1.4-21-1.4-31.7c0-3.4,0-6.7,0.1-10.1
		c0.4-13.8,1.6-27.4,3.6-40.8c2-13.4,4.8-26.5,8.2-39.4c31.6-116.1,122.6-207.7,238.3-240.2c7-2,14.1-3.7,21.4-5.3
		c-3.1,13.9-5.3,28-6.6,42.5c-1,10.4-1.4,21-1.4,31.7c0,3.4,0.1,6.7,0.2,10.1c0.4,13.8,1.6,27.4,3.6,40.8
		c10.4-3.7,21.1-6.7,32.1-8.9c2.2-0.4,4.4-0.8,6.6-1.2c11.2-1.9,22.7-2.9,34.4-3c0.9,0,1.8,0,2.7,0s1.8,0,2.7,0
		c11.7,0.1,23.2,1.2,34.4,3c2.2,0.4,4.4,0.8,6.6,1.2c11,2.2,21.7,5.2,32.1,8.9c2-13.3,3.2-27,3.6-40.8c0.1-3.4,0.2-6.7,0.2-10.1
		c0-10.7-0.5-21.3-1.4-31.7c-1.3-14.4-3.5-28.6-6.6-42.5c7.2,1.5,14.3,3.3,21.4,5.2c115.7,32.5,206.7,124.1,238.3,240.2
		c3.5,12.8,6.3,26,8.2,39.4c2,13.4,3.2,27,3.6,40.8C-2246.8,678.1-2246.7,681.4-2246.7,684.8z"/>
	<path class="st5" d="M-2550.1,424.2L-2550.1,424.2c-13-2-26.3-3-39.8-3c0,0.7,0,1.4,0,2.1c0-0.7,0-1.4,0-2.1c-13.5,0-26.8,1-39.8,3
		h0c0-0.3,0-0.6,0-0.9c0-13.4,0.9-26.6,2.6-39.6c11.1-1.4,22.4-2.1,33.9-2.2c1.1,0,2.2,0,3.3,0c1.1,0,2.2,0,3.3,0
		c11.5,0.1,22.8,0.9,33.9,2.2c1.7,13,2.6,26.2,2.6,39.6C-2550.1,423.6-2550.1,423.9-2550.1,424.2z"/>
	<path class="st5" d="M-2286.5,683.9v0.9c0,13.4-0.9,26.6-2.6,39.6c-1.8,13.9-4.6,27.6-8.2,40.8c-35.2,128.5-152.9,223-292.6,223
		c-139.7,0-257.4-94.5-292.6-223c-3.6-13.3-6.4-26.9-8.2-40.8c-1.7-13-2.6-26.2-2.6-39.6v-0.9c0-13.5,1-26.8,2.7-39.9
		c1.8-13.3,4.4-26.3,7.9-39c27.9-102.7,108.4-183.7,210.7-212.4c1.3-0.4,2.7-0.7,4-1.1c-1,10.4-1.4,21-1.4,31.7
		c0,3.4,0.1,6.7,0.2,10.1c0.4,13.8,1.6,27.4,3.6,40.8c10.4-3.7,21.1-6.7,32.1-8.9c2.2-0.4,4.4-0.8,6.6-1.2c11.2-1.9,22.7-2.9,34.4-3
		c0.9,0,1.8,0,2.7,0s1.8,0,2.7,0c11.7,0.1,23.2,1.2,34.4,3c2.2,0.4,4.4,0.8,6.6,1.2c11,2.2,21.7,5.2,32.1,8.9
		c2-13.3,3.2-27,3.6-40.8c0.1-3.4,0.2-6.7,0.2-10.1c0-10.7-0.5-21.3-1.4-31.7c1.3,0.3,2.7,0.7,4,1.1
		c102.3,28.7,182.8,109.7,210.7,212.4c3.4,12.7,6.1,25.7,7.9,39C-2287.4,657.1-2286.5,670.4-2286.5,683.9z"/>
	<path class="st5" d="M-2589.9,421.2c0,0.7,0,1.4,0,2.1C-2589.9,422.6-2589.9,421.9-2589.9,421.2L-2589.9,421.2z"/>
	<path class="st5" d="M-2326.3,684.8c0,0.7,0,1.4,0,2.1c-0.1,13.5-1.2,26.8-3.3,39.8c-2.2,13.6-5.4,26.8-9.5,39.5
		c-34.3,105.8-133.6,182.2-250.8,182.2s-216.5-76.5-250.8-182.2c-4.1-12.8-7.3-26-9.5-39.5c-2.1-13-3.2-26.2-3.3-39.8
		c0-0.7,0-1.4,0-2.1c0-12.8,0.9-25.4,2.7-37.7c2-13.7,5-27.1,9-40.1c25.4-82.3,90.1-147.4,172.1-173.5c0.1,0,0.3-0.1,0.4-0.1
		c0.4,13.8,1.6,27.4,3.6,40.8c10.4-3.7,21.1-6.7,32.1-8.9c2.2-0.4,4.4-0.8,6.6-1.2c11.2-1.9,22.7-2.9,34.4-3c0.9,0,1.8,0,2.7,0
		s1.8,0,2.7,0c11.7,0.1,23.2,1.2,34.4,3c2.2,0.4,4.4,0.8,6.6,1.2c11,2.2,21.7,5.2,32.1,8.9c2-13.3,3.2-27,3.6-40.8
		c0.1,0,0.3,0.1,0.4,0.1c82,26,146.7,91.1,172.1,173.5c4,13,7,26.4,9,40.1C-2327.2,659.4-2326.3,672-2326.3,684.8z"/>
	<path class="st5" d="M-2366,684.8c0,13.2-1.1,26.2-3.4,38.8c-2.3,13.3-5.8,26.2-10.4,38.7c-31.5,85.5-113.7,146.4-210.1,146.4
		c-96.4,0-178.6-60.9-210.1-146.4c-4.6-12.4-8.1-25.3-10.4-38.7c-2.2-12.6-3.4-25.6-3.4-38.8c0-0.3,0-0.6,0-0.9
		c0.1-14,1.4-27.8,3.9-41.1c2.9-15.5,7.5-30.4,13.4-44.5c22.4-53.5,65.1-96.5,118.4-119.3h0c4-1.7,8.2-3.4,12.3-4.9
		c10.4-3.7,21.1-6.7,32.1-8.9c2.2-0.4,4.4-0.8,6.6-1.2c11.2-1.9,22.7-2.9,34.4-3c0.9,0,1.8,0,2.7,0s1.8,0,2.7,0
		c11.7,0.1,23.2,1.2,34.4,3c2.2,0.4,4.4,0.8,6.6,1.2c11,2.2,21.7,5.2,32.1,8.9c4.2,1.5,8.3,3.1,12.3,4.8h0
		c53.3,22.9,95.9,65.8,118.4,119.3c5.9,14.2,10.5,29.1,13.4,44.5c2.5,13.3,3.9,27,3.9,41.1C-2366,684.2-2366,684.5-2366,684.8z"/>
	<circle class="st5" cx="-2589.9" cy="684.8" r="184.1"/>
</g>
<g>
	<path class="st6" d="M-2550.1,424.2L-2550.1,424.2c-13-2-26.3-3-39.8-3c0,0.7,0,1.4,0,2.1c0-0.7,0-1.4,0-2.1c-13.5,0-26.8,1-39.8,3
		h0c0-0.3,0-0.6,0-0.9c0-13.4,0.9-26.6,2.6-39.6c1.8-13.9,4.6-27.6,8.2-40.8c2.2-8.1,4.8-16,7.6-23.8c5.9-16,13-31.4,21.4-46.1
		c8.4,14.6,15.5,30,21.4,46c2.9,7.8,5.4,15.7,7.6,23.8c3.6,13.3,6.4,26.9,8.2,40.8c1.7,13,2.6,26.2,2.6,39.6
		C-2550.1,423.6-2550.1,423.9-2550.1,424.2z"/>
	<path class="st6" d="M-1983.1,423.3c0,165-116.5,302.8-271.6,335.7c-13.9,3-28.1,5-42.5,6.3c-9.6,0.8-19.2,1.2-29,1.2
		c-4.3,0-8.6-0.1-12.8-0.2c-13.8-0.5-27.4-1.8-40.8-3.9c-13.4-2.1-26.5-5-39.3-8.6c-67.7-19-126.9-58.2-170.7-110.7
		c-8.8-10.5-16.9-21.6-24.4-33.1c-7.9-12.2-15.1-24.9-21.4-38.1c-7.2-15-13.4-30.6-18.4-46.8c-1.2-3.8-2.3-7.6-3.4-11.5
		c-3.5-12.9-6.3-26-8.2-39.4c10.4-3.7,21.1-6.7,32.1-8.9c2.2-0.4,4.4-0.8,6.6-1.2c11.2-1.9,22.7-2.9,34.4-3c0.9,0,1.8,0,2.7,0
		s1.8,0,2.7,0c11.7,0.1,23.2,1.2,34.4,3c2.2,0.4,4.4,0.8,6.6,1.2c11,2.2,21.7,5.2,32.1,8.9c2-13.3,3.2-27,3.6-40.8
		c0.1-3.4,0.2-6.7,0.2-10.1c0-10.7-0.5-21.3-1.4-31.7c-1.3-14.4-3.5-28.6-6.6-42.5c-2.1-9.3-4.5-18.6-7.3-27.6
		c-5-16.1-11.2-31.8-18.4-46.8c-6.3-13.2-13.5-25.9-21.4-38.1c-9,11.5-17.1,23.6-24.4,36.4c-7.3-12.7-15.4-24.9-24.4-36.4
		c7.5-11.5,15.6-22.6,24.4-33.1c62.9-75.5,157.7-123.5,263.6-123.5C-2136.7,80.1-1983.1,233.8-1983.1,423.3z"/>
	<path class="st7" d="M-1160,312.8c0,3.4-0.1,6.7-0.2,10.1c-0.4,13.8-1.6,27.4-3.6,40.8c-10.4-3.7-21.1-6.7-32.1-8.9
		c-2.2-0.4-4.4-0.8-6.6-1.2c-11.2-1.9-22.7-2.9-34.4-3c-0.9,0-1.8,0-2.7,0s-1.8,0-2.7,0c-11.7,0.1-23.2,1.2-34.4,3
		c-2.2,0.4-4.4,0.8-6.6,1.2c-11,2.2-21.7,5.2-32.1,8.9c-2-13.3-3.2-27-3.6-40.8c-0.1-3.4-0.2-6.7-0.2-10.1c0-10.7,0.5-21.3,1.4-31.7
		c1.3-14.4,3.5-28.6,6.6-42.5c2.1-9.3,4.5-18.6,7.3-27.6c5-16.1,11.2-31.8,18.4-46.8c6.3-13.2,13.5-25.9,21.4-38.1
		c9,11.5,17.1,23.6,24.4,36.4c-8.4,14.6-15.6,30-21.4,46.1c-2.9,7.8-5.4,15.7-7.6,23.8c-3.6,13.3-6.4,26.9-8.2,40.8
		c-1.7,13-2.6,26.2-2.6,39.6c0,0.3,0,0.6,0,0.9h0c13-2,26.2-3,39.8-3c0,0.7,0,1.4,0,2.1c0-0.7,0-1.4,0-2.1c13.5,0,26.8,1,39.8,3h0
		c0-0.3,0-0.6,0-0.9c0-13.4-0.9-26.6-2.6-39.6c-1.8-13.9-4.6-27.6-8.2-40.8c-2.2-8.1-4.8-16-7.6-23.8c-5.9-16-13-31.4-21.4-46
		c7.3-12.7,15.4-24.9,24.4-36.4c7.9,12.2,15.1,24.9,21.4,38.1c7.2,15,13.4,30.6,18.4,46.8c2.8,9,5.3,18.3,7.3,27.6
		c3.1,13.9,5.3,28,6.6,42.5C-1160.5,291.5-1160,302.1-1160,312.8z"/>
	<path class="st6" d="M-2550.1,424.2L-2550.1,424.2c-13-2-26.3-3-39.8-3c0,0.7,0,1.4,0,2.1c0-0.7,0-1.4,0-2.1c-13.5,0-26.8,1-39.8,3
		v-0.9c0-13.4,0.9-26.6,2.6-39.6c1.8-13.9,4.6-27.6,8.2-40.8c2.2-8.1,4.8-16,7.6-23.8c5.9-16,13-31.4,21.4-46.1
		c8.4,14.6,15.5,30,21.4,46c2.9,7.8,5.4,15.7,7.6,23.8c3.6,13.3,6.4,26.9,8.2,40.8c1.7,13,2.6,26.2,2.6,39.6
		C-2550.1,423.6-2550.1,423.9-2550.1,424.2z"/>
	<path class="st6" d="M-2022.9,423.3c0,140.5-95.6,258.8-225.3,293.2c-13.3,3.5-26.9,6.2-40.9,7.9c-12.2,1.5-24.6,2.3-37.2,2.3
		c-1.1,0-2.2,0-3.3,0c-13.5-0.1-26.8-1.2-39.8-3c-13.3-1.9-26.3-4.6-38.9-8.2c-63.1-17.7-117.9-55.2-157.1-105.5
		c-9-11.5-17.1-23.6-24.4-36.4c-8.4-14.6-15.6-30-21.4-46.1c-2.9-8-5.5-16.1-7.8-24.4c-3.5-12.7-6.1-25.7-7.9-39
		c11.2-1.9,22.7-2.9,34.4-3c0.9,0,1.8,0,2.7,0s1.8,0,2.7,0c11.7,0.1,23.2,1.2,34.4,3c2.2,0.4,4.4,0.8,6.6,1.2
		c11,2.2,21.7,5.2,32.1,8.9c2-13.3,3.2-27,3.6-40.8c0.1-3.4,0.2-6.7,0.2-10.1c0-10.7-0.5-21.3-1.4-31.7c-1.3-14.4-3.5-28.6-6.6-42.5
		c-2.1-9.3-4.5-18.6-7.3-27.6c-5-16.1-11.2-31.8-18.4-46.8c-6.3-13.2-13.5-25.9-21.4-38.1c55.5-71.1,142-116.8,239.2-116.8
		C-2158.7,119.9-2022.9,255.7-2022.9,423.3z"/>
	<path class="st6" d="M-2550.1,424.2L-2550.1,424.2c-13-2-26.3-3-39.8-3c0.1-13.5,1.2-26.8,3.3-39.8c2.1-13.6,5.3-26.8,9.5-39.6
		c2.5-7.8,5.4-15.4,8.6-22.8c2.9,7.8,5.4,15.7,7.6,23.8c3.6,13.3,6.4,26.9,8.2,40.8c1.7,13,2.6,26.2,2.6,39.6
		C-2550.1,423.6-2550.1,423.9-2550.1,424.2z"/>
	<path class="st6" d="M-2062.6,423.3c0,117.9-77.4,217.8-184.2,251.4c-12.8,4-26.1,7.1-39.6,9.2c-13,2-26.2,3-39.8,3h0
		c-13.5,0-26.8-1-39.8-3c-13.7-2.1-27.1-5.2-40-9.3c-56.7-18-105.1-54.7-138-102.8c-9.5-13.9-17.7-28.7-24.4-44.3
		c-3.7-8.6-6.9-17.4-9.7-26.4c-4-13-7-26.4-9-40.1c11.7,0.1,23.2,1.2,34.4,3c2.2,0.4,4.4,0.8,6.6,1.2c11,2.2,21.7,5.2,32.1,8.9
		c2-13.3,3.2-27,3.6-40.8c0.1-3.4,0.2-6.7,0.2-10.1c0-10.7-0.5-21.3-1.4-31.7c-1.3-14.4-3.5-28.6-6.6-42.5
		c-2.1-9.3-4.5-18.6-7.3-27.6c-5-16.1-11.2-31.8-18.4-46.8c47.5-69.5,127.3-115.1,217.8-115.1
		C-2180.7,159.7-2062.6,277.7-2062.6,423.3z"/>
	<path class="st6" d="M-2102.4,423.3c0,97-61.7,179.6-148,210.7c-12.4,4.5-25.4,7.9-38.8,10.1c-12,2-24.4,3-37,3c-0.9,0-1.8,0-2.7,0
		c-14-0.2-27.7-1.6-41-4.2c-15.4-3-30.3-7.7-44.4-13.8c-48.1-20.6-87.6-57.7-111.3-104c-2.6-5-4.9-10.1-7.1-15.3
		c-5.9-14.2-10.5-29.1-13.4-44.5c11,2.2,21.7,5.2,32.1,8.9c2-13.3,3.2-27,3.6-40.8c0.1-3.4,0.2-6.7,0.2-10.1
		c0-10.7-0.5-21.3-1.4-31.7c-1.3-14.4-3.5-28.6-6.6-42.5c-2.1-9.3-4.5-18.6-7.3-27.6c37.1-72.5,112.4-122.1,199.4-122.1
		C-2202.6,199.4-2102.4,299.7-2102.4,423.3z"/>
	<circle class="st6" cx="-2326.3" cy="423.3" r="184.1"/>
</g>
<circle class="st0" cx="-3945.3" cy="268.7" r="23.8"/>
<circle class="st0" cx="-3992.4" cy="268.5" r="23.8"/>
<circle class="st0" cx="-3898" cy="268.5" r="23.8"/>
<circle class="st0" cx="-3850.7" cy="268.7" r="23.8"/>
<circle class="st0" cx="-3803.4" cy="268.7" r="23.8"/>
<path class="st0" d="M-3945.3,197.6v35.5h-20.8c-1.5-2.6-2.5-5.5-2.9-8.6v-0.2c0.1-1,0.2-2,0.2-3v-0.1c0-1-0.1-2-0.2-3v0
	c0,0,0,0,0,0c0.4-3.1,1.5-6.1,3-8.7c2.1-3.7,5.2-6.7,8.8-8.8c3-1.7,6.5-2.8,10.1-3H-3945.3z"/>
<path class="st0" d="M-3968.9,218.2c0.1,1,0.2,2,0.2,3v0.1c0,1-0.1,2-0.2,3v0.2c0,0,0-0.1,0-0.1c-0.1-1-0.2-2-0.2-3v-0.1
	C-3969.1,220.2-3969.1,219.2-3968.9,218.2z"/>
<path class="st0" d="M-3921.6,221.2L-3921.6,221.2c0,0.6,0,1.1-0.1,1.7c0,0.3,0,0.6-0.1,0.8c0,0,0,0,0,0c-0.3,3.3-1.4,6.5-3,9.3
	c-2.1,3.7-5.1,6.7-8.8,8.8c-2.6,1.5-5.6,2.6-8.8,3c-0.3,0-0.6,0.1-0.9,0.1h0c-0.7,0.1-1.4,0.1-2.2,0.1h-0.1c-0.7,0-1.5,0-2.2-0.1h0
	c-0.3,0-0.6-0.1-0.9-0.1c-3.1-0.4-6-1.4-8.6-2.9c-3.7-2.1-6.8-5.2-8.9-8.9h20.8v-35.5h-1.7c0.5,0,1.1-0.1,1.6-0.1h0.1
	c0.5,0,1,0,1.6,0.1c3.7,0.2,7.2,1.3,10.3,3.1c3.6,2.1,6.6,5.1,8.7,8.7c1.6,2.8,2.7,5.9,3.1,9.3c0,0,0,0,0,0c0,0.3,0.1,0.7,0.1,1
	C-3921.6,220.2-3921.6,220.7-3921.6,221.2z"/>
<path class="st0" d="M-3968.9,218.1L-3968.9,218.1c-0.1,1.1-0.2,2.1-0.2,3.1v0.1c0,1,0.1,2,0.2,3c-0.4,3.2-1.5,6.1-3,8.7h-20.7
	v-35.5h3.1c3.1,0.4,6.1,1.4,8.7,2.9c3.7,2.1,6.8,5.2,8.9,8.9C-3970.3,212-3969.3,215-3968.9,218.1z"/>
<path class="st0" d="M-3971.9,233.1c-2.1,3.6-5.2,6.7-8.8,8.8c-2.9,1.6-6.1,2.7-9.5,3c-0.2,0-0.3,0-0.5,0c-0.6,0.1-1.2,0.1-1.8,0.1
	h-0.1c-0.6,0-1.1,0-1.7-0.1c-0.2,0-0.3,0-0.4,0c-3.5-0.3-6.8-1.4-9.7-3.1c-3.6-2.1-6.6-5.1-8.7-8.7c-1.8-3-2.9-6.5-3.1-10.1
	c-0.1-0.6-0.1-1.2-0.1-1.8c0-0.6,0-1.2,0.1-1.8c0.3-3.6,1.3-7,3-10c2.1-3.7,5.1-6.7,8.8-8.8c2.7-1.5,5.7-2.6,8.8-3
	c1-0.1,2-0.2,3-0.2h0.1c1,0,2.1,0.1,3.1,0.2h-3.1v35.5H-3971.9z"/>
<path class="st0" d="M-3968.7,221.2L-3968.7,221.2c0,1.1-0.1,2.1-0.2,3.1c0,0,0,0.1,0,0.1c-0.1-1-0.2-2-0.2-3v-0.1
	c0-1,0.1-2.1,0.2-3.1C-3968.8,219.1-3968.7,220.1-3968.7,221.2z"/>
<circle class="st0" cx="-3898" cy="221.2" r="23.8"/>
<circle class="st0" cx="-3850.7" cy="221.3" r="23.8"/>
<circle class="st0" cx="-3803.5" cy="221.3" r="23.8"/>
<path class="st8" d="M-3665.8,908.9l-3.8,1.9l-19.1,9.5l-19.1,9.5l19.1,9.5l-19.1,9.6l-15.1,7.5c-2.5-5-3.9-10.6-4-16.6v-1
	c0,0.2,0,0.3,0,0.5v0c0,0.2,0,0.3,0,0.5c-0.1,6-1.5,11.6-4,16.6l-15.1-7.5l-19.1-9.6l19.1-9.5l-19.1-9.5l-19.1-9.5l-3.8-1.9
	c6.4-4.8,14.3-7.6,22.9-7.6c8.6,0,16.5,2.8,22.9,7.6c2.9,2.2,5.5,4.8,7.6,7.7c1.4,1.8,2.6,3.8,3.6,5.8l4-2l4,2c1-2,2.2-4,3.6-5.8
	c2.2-2.9,4.8-5.5,7.6-7.7c6.4-4.8,14.3-7.6,22.9-7.6C-3680.1,901.3-3672.2,904.1-3665.8,908.9z"/>
<path class="st0" d="M-3746,949.1l15.1,7.5c-1,2.1-2.2,4-3.6,5.8c-2.2,2.9-4.8,5.5-7.6,7.6c-6.4,4.8-14.3,7.6-22.9,7.6
	c-8.6,0-16.5-2.8-22.9-7.6c-2.9-2.2-5.5-4.8-7.6-7.6c-1.4-1.8-2.6-3.8-3.6-5.8c-2.6-5.1-4-10.9-4-17.1v0c0-6.1,1.4-11.9,4-17.1
	c1-2.1,2.2-4,3.6-5.8c2.2-2.9,4.8-5.5,7.6-7.7l3.8,1.9l19.1,9.5l19.1,9.5l-19.1,9.5L-3746,949.1z"/>
<path class="st0" d="M-3726.9,939v1c0-0.2,0-0.3,0-0.5v0C-3726.9,939.3-3726.9,939.2-3726.9,939z"/>
<path class="st0" d="M-3726.9,939.5c0-0.2,0-0.3,0-0.5v1C-3726.9,939.8-3726.9,939.7-3726.9,939.5L-3726.9,939.5z"/>
<path class="st0" d="M-3650.5,939.5L-3650.5,939.5c0,6.1-1.5,11.9-4,17.1c-1,2.1-2.2,4-3.6,5.8c-2.2,2.9-4.7,5.5-7.6,7.6
	c-6.4,4.8-14.3,7.6-22.9,7.6c-8.6,0-16.5-2.8-22.9-7.6c-2.9-2.2-5.5-4.8-7.6-7.6c-1.4-1.8-2.6-3.8-3.6-5.8l15.1-7.5l19.1-9.6
	l-19.1-9.5l19.1-9.5l19.1-9.5l3.8-1.9c2.9,2.2,5.5,4.8,7.6,7.7c1.4,1.8,2.6,3.8,3.6,5.8C-3652,927.6-3650.5,933.4-3650.5,939.5z"/>
<path class="st7" d="M140,155.4c0,2.5,0,5.1-0.1,7.6c-0.3,10.4-1.2,20.6-2.7,30.6c-7.8-2.8-15.8-5-24.1-6.7c-1.7-0.3-3.3-0.6-5-0.9
	c-8.4-1.4-17-2.2-25.8-2.3c-0.7,0-1.3,0-2,0s-1.3,0-2,0c-8.8,0.1-17.4,0.9-25.8,2.3c-1.7,0.3-3.3,0.6-5,0.9
	c-8.3,1.6-16.3,3.9-24.1,6.7c-1.5-10-2.4-20.2-2.7-30.6c-0.1-2.5-0.1-5-0.1-7.6c0-8,0.4-16,1.1-23.8c1-10.8,2.6-21.5,4.9-31.9
	c1.5-7,3.4-13.9,5.5-20.7c3.8-12.1,8.4-23.8,13.8-35.1C50.7,34,56.1,24.5,62,15.4c6.7,8.6,12.9,17.7,18.3,27.3
	c-6.3,11-11.7,22.5-16.1,34.6c-2.1,5.8-4,11.8-5.7,17.8c-2.7,10-4.8,20.2-6.2,30.7c-1.3,9.7-1.9,19.6-1.9,29.7c0,0.2,0,0.5,0,0.7h0
	c9.7-1.5,19.7-2.2,29.8-2.2c0,0.5,0,1,0,1.6c0-0.5,0-1,0-1.6c10.1,0,20.1,0.8,29.9,2.2h0c0-0.2,0-0.5,0-0.7c0-10.1-0.7-20-1.9-29.7
	c-1.4-10.5-3.4-20.7-6.2-30.6c-1.7-6.1-3.6-12-5.7-17.9c-4.4-12-9.8-23.6-16.1-34.6c5.4-9.6,11.6-18.7,18.3-27.3
	c5.9,9.1,11.3,18.7,16.1,28.6c5.4,11.3,10.1,23,13.8,35.1c2.1,6.8,3.9,13.7,5.5,20.7c2.3,10.4,3.9,21,4.9,31.9
	C139.7,139.5,140,147.4,140,155.4z"/>
</svg>
